M48
;GenerationSoftware,Autodesk,EAGLE,9.6.2*%
;CreationDate,2021-05-25T15:37:40Z*%
FMAT,2
ICI,OFF
METRIC,TZ,000.000
T2C0.300
T1C0.508
%
G90
M71
T1
X149098Y96266
X7874Y11430
X7874Y13970
X5334Y11430
X5334Y13970
X2794Y11430
X2794Y13970
X24130Y11430
X24130Y13970
X21590Y11430
X21590Y13970
X19050Y11430
X19050Y13970
X40386Y11430
X40386Y13970
X37846Y11430
X37846Y13970
X35306Y11430
X35306Y13970
X56642Y11430
X56642Y13970
X54102Y11430
X54102Y13970
X51562Y11430
X51562Y13970
X72898Y11430
X72898Y13970
X70358Y11430
X70358Y13970
X67818Y11430
X67818Y13970
X89154Y11430
X89154Y13970
X86614Y11430
X86614Y13970
X84074Y11430
X84074Y13970
X105410Y11430
X105410Y13970
X102870Y11430
X102870Y13970
X100330Y11430
X100330Y13970
X121666Y11430
X121666Y13970
X119126Y11430
X119126Y13970
X116586Y11430
X116586Y13970
X137922Y11430
X137922Y13970
X135382Y11430
X135382Y13970
X132842Y11430
X132842Y13970
X154178Y11430
X154178Y13970
X151638Y11430
X151638Y13970
X149098Y11430
X149098Y13970
X7874Y52578
X7874Y55118
X5334Y52578
X5334Y55118
X2794Y52578
X2794Y55118
X24130Y52578
X24130Y55118
X21590Y52578
X21590Y55118
X19050Y52578
X19050Y55118
X40386Y52578
X40386Y55118
X37846Y52578
X37846Y55118
X35306Y52578
X35306Y55118
X56642Y52578
X56642Y55118
X54102Y52578
X54102Y55118
X51562Y52578
X51562Y55118
X72898Y52578
X72898Y55118
X70358Y52578
X70358Y55118
X67818Y52578
X67818Y55118
X89154Y52578
X89154Y55118
X86614Y52578
X86614Y55118
X84074Y52578
X84074Y55118
X105410Y52578
X105410Y55118
X102870Y52578
X102870Y55118
X100330Y52578
X100330Y55118
X121666Y52578
X121666Y55118
X119126Y52578
X119126Y55118
X116586Y52578
X116586Y55118
X137922Y52578
X137922Y55118
X135382Y52578
X135382Y55118
X132842Y52578
X132842Y55118
X154178Y52578
X154178Y55118
X151638Y52578
X151638Y55118
X149098Y52578
X149098Y55118
X7874Y93726
X7874Y96266
X5334Y93726
X5334Y96266
X2794Y93726
X2794Y96266
X24130Y93726
X24130Y96266
X21590Y93726
X21590Y96266
X19050Y93726
X19050Y96266
X40386Y93726
X40386Y96266
X37846Y93726
X37846Y96266
X35306Y93726
X35306Y96266
X56642Y93726
X56642Y96266
X54102Y93726
X54102Y96266
X51562Y93726
X51562Y96266
X72898Y93726
X72898Y96266
X70358Y93726
X70358Y96266
X67818Y93726
X67818Y96266
X89154Y93726
X89154Y96266
X86614Y93726
X86614Y96266
X84074Y93726
X84074Y96266
X105410Y93726
X105410Y96266
X102870Y93726
X102870Y96266
X100330Y93726
X100330Y96266
X121666Y93726
X121666Y96266
X119126Y93726
X119126Y96266
X116586Y93726
X116586Y96266
X137922Y93726
X137922Y96266
X135382Y93726
X135382Y96266
X132842Y93726
X132842Y96266
X154178Y93726
X154178Y96266
X151638Y93726
X151638Y96266
X149098Y93726
T2
X22542Y9017
X23431Y21050
X23590Y15240
X18494Y18764
X18835Y12736
X22860Y27622
X19050Y15589
X22225Y15621
X41847Y4890
X40640Y2159
X35116Y1587
X33449Y26924
X33449Y25971
X33449Y23685
X37846Y25400
X40513Y24574
X39243Y28702
X36513Y30226
X35846Y33433
X35777Y38545
X39915Y38545
X33449Y15494
X38037Y9017
X41085Y9398
X37704Y27305
X41212Y8128
X33782Y35560
X33449Y22225
X38164Y23622
X41212Y22860
X41243Y19622
X33481Y10700
X33767Y4255
X33703Y2731
X36307Y6350
X40117Y6350
X35687Y8319
X37577Y5080
X41085Y35370
X42609Y40069
X33147Y39116
X41958Y2223
X38037Y3746
X38481Y12192
X39751Y12128
X34529Y9779
X35846Y32099
X40608Y15367
X34751Y21749
X35069Y20701
X35037Y19558
X41243Y18288
X39942Y31686
X41212Y31686
X39751Y22574
X40096Y1587
X39624Y2096
X39116Y1587
X38608Y2096
X38116Y1587
X37656Y2540
X37116Y1587
X36576Y2159
X36116Y1587
X34925Y35143
X34417Y20080
X34410Y12736
X37624Y12732
X40577Y30480
X35560Y2159
X34925Y35878
X34163Y17829
X34021Y12065
X38608Y27114
X40979Y27411
X41090Y1582
X34354Y2159
X36031Y37846
X39598Y37846
X37592Y22860
X38862Y22860
X38799Y6350
X38799Y5080
X33018Y31305
X33018Y30607
X33719Y1651
X33242Y2127
X42037Y1397
X39815Y33020
X36640Y8954
X41243Y17272
X36132Y29654
X35433Y30543
X39497Y10406
X38799Y9017
X39688Y21050
X39846Y15240
X34750Y18764
X35091Y12736
X39116Y27622
X35306Y15589
X38481Y15621
X58102Y4890
X56896Y2159
X51371Y1587
X49705Y26924
X49705Y25971
X49705Y23685
X54102Y25400
X56769Y24574
X55499Y28702
X52768Y30226
X52102Y33433
X52033Y38545
X56171Y38545
X49705Y15494
X54292Y9017
X57340Y9398
X53960Y27305
X57467Y8128
X50038Y35560
X49705Y22225
X54419Y23622
X57467Y22860
X57499Y19622
X49737Y10700
X50023Y4255
X49959Y2731
X52563Y6350
X56373Y6350
X51943Y8319
X53833Y5080
X57340Y35370
X58864Y40069
X49403Y39116
X58214Y2223
X54292Y3746
X54737Y12192
X56007Y12128
X50785Y9779
X52102Y32099
X56864Y15367
X51007Y21749
X51325Y20701
X51293Y19558
X57499Y18288
X56197Y31686
X57467Y31686
X56007Y22574
X56352Y1587
X55880Y2096
X55372Y1587
X54864Y2096
X54372Y1587
X53911Y2540
X53372Y1587
X52832Y2159
X52372Y1587
X51181Y35143
X50673Y20080
X50666Y12736
X53880Y12732
X56832Y30480
X51816Y2159
X51181Y35878
X50419Y17829
X50277Y12065
X54864Y27114
X57235Y27411
X57346Y1582
X50609Y2159
X52287Y37846
X55853Y37846
X53848Y22860
X55118Y22860
X55054Y6350
X55054Y5080
X49274Y31305
X49274Y30607
X49974Y1651
X49498Y2127
X58293Y1397
X56070Y33020
X52895Y8954
X57499Y17272
X52387Y29654
X51689Y30543
X55753Y10406
X55054Y9017
X55943Y21050
X56102Y15240
X51005Y18764
X51347Y12736
X55372Y27622
X51562Y15589
X54737Y15621
X74359Y4890
X73152Y2159
X67628Y1587
X65961Y26924
X65961Y25971
X65961Y23685
X70358Y25400
X73025Y24574
X71755Y28702
X69025Y30226
X68358Y33433
X68289Y38545
X72427Y38545
X65961Y15494
X70549Y9017
X73597Y9398
X70216Y27305
X73724Y8128
X66294Y35560
X65961Y22225
X70676Y23622
X73724Y22860
X73755Y19622
X65993Y10700
X66279Y4255
X66215Y2731
X68819Y6350
X72629Y6350
X68199Y8319
X70089Y5080
X73597Y35370
X75121Y40069
X65659Y39116
X74470Y2223
X70549Y3746
X70993Y12192
X72263Y12128
X67041Y9779
X68358Y32099
X73120Y15367
X67263Y21749
X67581Y20701
X67549Y19558
X73755Y18288
X72454Y31686
X73724Y31686
X72263Y22574
X72608Y1587
X72136Y2096
X71628Y1587
X71120Y2096
X70628Y1587
X70168Y2540
X69628Y1587
X69088Y2159
X68628Y1587
X67437Y35143
X66929Y20080
X66922Y12736
X70136Y12732
X73089Y30480
X68072Y2159
X67437Y35878
X66675Y17829
X66533Y12065
X71120Y27114
X73491Y27411
X73602Y1582
X66866Y2159
X68543Y37846
X72110Y37846
X70104Y22860
X71374Y22860
X71311Y6350
X71311Y5080
X65530Y31305
X65530Y30607
X66231Y1651
X65754Y2127
X74549Y1397
X72327Y33020
X69152Y8954
X73755Y17272
X68644Y29654
X67945Y30543
X72009Y10406
X71311Y9017
X72200Y21050
X72358Y15240
X67262Y18764
X67603Y12736
X71628Y27622
X67818Y15589
X70993Y15621
X90614Y4890
X89408Y2159
X83884Y1587
X82217Y26924
X82217Y25971
X82217Y23685
X86614Y25400
X89281Y24574
X88011Y28702
X85281Y30226
X84614Y33433
X84545Y38545
X88683Y38545
X82217Y15494
X86805Y9017
X89852Y9398
X86472Y27305
X89979Y8128
X82550Y35560
X82217Y22225
X86932Y23622
X89979Y22860
X90011Y19622
X82249Y10700
X82535Y4255
X82471Y2731
X85075Y6350
X88885Y6350
X84455Y8319
X86345Y5080
X89852Y35370
X91376Y40069
X81915Y39116
X90726Y2223
X86805Y3746
X87249Y12192
X88519Y12128
X83297Y9779
X84614Y32099
X89376Y15367
X83519Y21749
X83837Y20701
X83805Y19558
X90011Y18288
X88709Y31686
X89979Y31686
X88519Y22574
X88864Y1587
X88392Y2096
X87884Y1587
X87376Y2096
X86884Y1587
X86424Y2540
X85884Y1587
X85344Y2159
X84884Y1587
X83693Y35143
X83185Y20080
X83178Y12736
X86392Y12732
X89344Y30480
X84328Y2159
X83693Y35878
X82931Y17829
X82789Y12065
X87376Y27114
X89747Y27411
X89858Y1582
X83122Y2159
X84799Y37846
X88365Y37846
X86360Y22860
X87630Y22860
X87566Y6350
X87566Y5080
X81786Y31305
X81786Y30607
X82487Y1651
X82010Y2127
X90805Y1397
X88582Y33020
X85408Y8954
X90011Y17272
X84900Y29654
X84201Y30543
X88265Y10406
X87566Y9017
X88455Y21050
X88614Y15240
X83518Y18764
X83859Y12736
X87884Y27622
X84074Y15589
X87249Y15621
X106870Y4890
X105664Y2159
X100139Y1587
X98473Y26924
X98473Y25971
X98473Y23685
X102870Y25400
X105537Y24574
X104267Y28702
X101536Y30226
X100870Y33433
X100801Y38545
X104939Y38545
X98473Y15494
X103060Y9017
X106108Y9398
X102728Y27305
X106235Y8128
X98806Y35560
X98473Y22225
X103187Y23622
X106235Y22860
X106267Y19622
X98505Y10700
X98791Y4255
X98727Y2731
X101331Y6350
X105141Y6350
X100711Y8319
X102601Y5080
X106108Y35370
X107632Y40069
X98171Y39116
X106982Y2223
X103060Y3746
X103505Y12192
X104775Y12128
X99553Y9779
X100870Y32099
X105632Y15367
X99775Y21749
X100093Y20701
X100061Y19558
X106267Y18288
X104965Y31686
X106235Y31686
X104775Y22574
X105120Y1587
X104648Y2096
X104140Y1587
X103632Y2096
X103140Y1587
X102679Y2540
X102140Y1587
X101600Y2159
X101140Y1587
X99949Y35143
X99441Y20080
X99434Y12736
X102648Y12732
X105600Y30480
X100584Y2159
X99949Y35878
X99187Y17829
X99045Y12065
X103632Y27114
X106003Y27411
X106114Y1582
X99377Y2159
X101055Y37846
X104621Y37846
X102616Y22860
X103886Y22860
X103822Y6350
X103822Y5080
X98042Y31305
X98042Y30607
X98742Y1651
X98266Y2127
X107061Y1397
X104838Y33020
X101663Y8954
X106267Y17272
X101155Y29654
X100457Y30543
X104521Y10406
X103822Y9017
X104711Y21050
X104870Y15240
X99773Y18764
X100115Y12736
X104140Y27622
X100330Y15589
X103505Y15621
X123126Y4890
X121920Y2159
X116395Y1587
X114729Y26924
X114729Y25971
X114729Y23685
X119126Y25400
X121793Y24574
X120523Y28702
X117792Y30226
X117126Y33433
X117057Y38545
X121195Y38545
X114729Y15494
X119316Y9017
X122364Y9398
X118984Y27305
X122491Y8128
X115062Y35560
X114729Y22225
X119443Y23622
X122491Y22860
X122523Y19622
X114761Y10700
X115047Y4255
X114983Y2731
X117587Y6350
X121397Y6350
X116967Y8319
X118857Y5080
X122364Y35370
X123888Y40069
X114427Y39116
X123238Y2223
X119316Y3746
X119761Y12192
X121031Y12128
X115809Y9779
X117126Y32099
X121888Y15367
X116031Y21749
X116349Y20701
X116317Y19558
X122523Y18288
X121221Y31686
X122491Y31686
X121031Y22574
X121376Y1587
X120904Y2096
X120396Y1587
X119888Y2096
X119396Y1587
X118935Y2540
X118396Y1587
X117856Y2159
X117396Y1587
X116205Y35143
X115697Y20080
X115690Y12736
X118904Y12732
X121856Y30480
X116840Y2159
X116205Y35878
X115443Y17829
X115301Y12065
X119888Y27114
X122259Y27411
X122370Y1582
X115633Y2159
X117311Y37846
X120877Y37846
X118872Y22860
X120142Y22860
X120078Y6350
X120078Y5080
X114298Y31305
X114298Y30607
X114998Y1651
X114522Y2127
X123317Y1397
X121094Y33020
X117919Y8954
X122523Y17272
X117411Y29654
X116713Y30543
X120777Y10406
X120078Y9017
X120967Y21050
X121126Y15240
X116029Y18764
X116371Y12736
X120396Y27622
X116586Y15589
X119761Y15621
X139383Y4890
X138176Y2159
X132652Y1587
X130985Y26924
X130985Y25971
X130985Y23685
X135382Y25400
X138049Y24574
X136779Y28702
X134049Y30226
X133382Y33433
X133313Y38545
X137451Y38545
X130985Y15494
X135573Y9017
X138621Y9398
X135240Y27305
X138748Y8128
X131318Y35560
X130985Y22225
X135700Y23622
X138748Y22860
X138779Y19622
X131017Y10700
X131303Y4255
X131239Y2731
X133843Y6350
X137653Y6350
X133223Y8319
X135113Y5080
X138621Y35370
X140145Y40069
X130683Y39116
X139494Y2223
X135573Y3746
X136017Y12192
X137287Y12128
X132065Y9779
X133382Y32099
X138144Y15367
X132287Y21749
X132605Y20701
X132573Y19558
X138779Y18288
X137478Y31686
X138748Y31686
X137287Y22574
X137632Y1587
X137160Y2096
X136652Y1587
X136144Y2096
X135652Y1587
X135192Y2540
X134652Y1587
X134112Y2159
X133652Y1587
X132461Y35143
X131953Y20080
X131946Y12736
X135160Y12732
X138113Y30480
X133096Y2159
X132461Y35878
X131699Y17829
X131557Y12065
X136144Y27114
X138515Y27411
X138626Y1582
X131890Y2159
X133567Y37846
X137134Y37846
X135128Y22860
X136398Y22860
X136335Y6350
X136335Y5080
X130554Y31305
X130554Y30607
X131255Y1651
X130778Y2127
X139573Y1397
X137351Y33020
X134176Y8954
X138779Y17272
X133668Y29654
X132969Y30543
X137033Y10406
X136335Y9017
X137224Y21050
X137382Y15240
X132286Y18764
X132627Y12736
X136652Y27622
X132842Y15589
X136017Y15621
X155639Y4890
X154432Y2159
X148908Y1587
X147241Y26924
X147241Y25971
X147241Y23685
X151638Y25400
X154305Y24574
X153035Y28702
X150305Y30226
X149638Y33433
X149569Y38545
X153707Y38545
X147241Y15494
X151829Y9017
X154877Y9398
X151496Y27305
X155004Y8128
X147574Y35560
X147241Y22225
X151956Y23622
X155004Y22860
X155035Y19622
X147273Y10700
X147559Y4255
X147495Y2731
X150099Y6350
X153909Y6350
X149479Y8319
X151369Y5080
X154877Y35370
X156401Y40069
X146939Y39116
X155750Y2223
X151829Y3746
X152273Y12192
X153543Y12128
X148321Y9779
X149638Y32099
X154400Y15367
X148543Y21749
X148861Y20701
X148829Y19558
X155035Y18288
X153734Y31686
X155004Y31686
X153543Y22574
X153888Y1587
X153416Y2096
X152908Y1587
X152400Y2096
X151908Y1587
X151448Y2540
X150908Y1587
X150368Y2159
X149908Y1587
X148717Y35143
X148209Y20080
X148202Y12736
X151416Y12732
X154369Y30480
X149352Y2159
X148717Y35878
X147955Y17829
X147813Y12065
X152400Y27114
X154771Y27411
X154882Y1582
X148146Y2159
X149823Y37846
X153390Y37846
X151384Y22860
X152654Y22860
X152591Y6350
X152591Y5080
X146810Y31305
X146810Y30607
X147511Y1651
X147034Y2127
X155829Y1397
X153607Y33020
X150432Y8954
X155035Y17272
X149924Y29654
X149225Y30543
X153289Y10406
X152591Y9017
X153480Y21050
X153638Y15240
X148542Y18764
X148883Y12736
X152908Y27622
X149098Y15589
X152273Y15621
X9335Y46037
X8128Y43307
X2604Y42736
X937Y68072
X937Y67120
X937Y64833
X5334Y66548
X8001Y65723
X6731Y69850
X4000Y71374
X3334Y74581
X3265Y79693
X7403Y79693
X937Y56642
X5524Y50165
X8573Y50546
X5192Y68453
X8700Y49276
X1270Y76708
X937Y63373
X5651Y64770
X8700Y64008
X8731Y60769
X969Y51848
X1255Y45402
X1191Y43878
X3795Y47498
X7605Y47498
X3175Y49466
X5065Y46228
X8573Y76518
X10097Y81217
X635Y80264
X9446Y43371
X5524Y44894
X5969Y53340
X7239Y53276
X2017Y50927
X3334Y73247
X8096Y56515
X2239Y62897
X2557Y61849
X2525Y60706
X8731Y59436
X7429Y72835
X8700Y72835
X7239Y63722
X7584Y42736
X7112Y43244
X6604Y42736
X6096Y43244
X5604Y42736
X5144Y43688
X4604Y42736
X4064Y43307
X3604Y42736
X2413Y76291
X1905Y61228
X1898Y53884
X5112Y53880
X8064Y71628
X3048Y43307
X2413Y77026
X1651Y58977
X1509Y53213
X6096Y68263
X8467Y68559
X8578Y42730
X1841Y43307
X3519Y78994
X7085Y78994
X5080Y64008
X6350Y64008
X6286Y47498
X6286Y46228
X506Y72454
X506Y71755
X1207Y42799
X730Y43275
X9525Y42545
X7302Y74168
X4128Y50101
X8731Y58420
X3619Y70803
X2921Y71692
X6985Y51554
X6286Y50165
X7175Y62198
X7334Y56388
X2238Y59912
X2579Y53884
X6604Y68771
X2794Y56737
X5969Y56769
X25590Y46037
X24384Y43307
X18860Y42736
X17193Y68072
X17193Y67120
X17193Y64833
X21590Y66548
X24257Y65723
X22987Y69850
X20257Y71374
X19590Y74581
X19521Y79693
X23659Y79693
X17193Y56642
X21781Y50165
X24828Y50546
X21448Y68453
X24955Y49276
X17526Y76708
X17193Y63373
X21907Y64770
X24955Y64008
X24987Y60769
X17225Y51848
X17511Y45402
X17447Y43878
X20051Y47498
X23861Y47498
X19431Y49466
X21321Y46228
X24828Y76518
X26352Y81217
X16891Y80264
X25702Y43371
X21781Y44894
X22225Y53340
X23495Y53276
X18273Y50927
X19590Y73247
X24352Y56515
X18495Y62897
X18813Y61849
X18781Y60706
X24987Y59436
X23685Y72835
X24955Y72835
X23495Y63722
X23840Y42736
X23368Y43244
X22860Y42736
X22352Y43244
X21860Y42736
X21400Y43688
X20860Y42736
X20320Y43307
X19860Y42736
X18669Y76291
X18161Y61228
X18154Y53884
X21368Y53880
X24320Y71628
X19304Y43307
X18669Y77026
X17907Y58977
X17765Y53213
X22352Y68263
X24723Y68559
X24834Y42730
X18098Y43307
X19775Y78994
X23341Y78994
X21336Y64008
X22606Y64008
X22542Y47498
X22542Y46228
X16762Y72454
X16762Y71755
X17463Y42799
X16986Y43275
X25781Y42545
X23558Y74168
X20384Y50101
X24987Y58420
X19876Y70803
X19177Y71692
X23241Y51554
X22542Y50165
X23431Y62198
X23590Y56388
X18494Y59912
X18835Y53884
X22860Y68771
X19050Y56737
X22225Y56769
X41847Y46037
X40640Y43307
X35116Y42736
X33449Y68072
X33449Y67120
X33449Y64833
X37846Y66548
X40513Y65723
X39243Y69850
X36513Y71374
X35846Y74581
X35777Y79693
X39915Y79693
X33449Y56642
X38037Y50165
X41085Y50546
X37704Y68453
X41212Y49276
X33782Y76708
X33449Y63373
X38164Y64770
X41212Y64008
X41243Y60769
X33481Y51848
X33767Y45402
X33703Y43878
X36307Y47498
X40117Y47498
X35687Y49466
X37577Y46228
X41085Y76518
X42609Y81217
X33147Y80264
X41958Y43371
X38037Y44894
X38481Y53340
X39751Y53276
X34529Y50927
X35846Y73247
X40608Y56515
X34751Y62897
X35069Y61849
X35037Y60706
X41243Y59436
X39942Y72835
X41212Y72835
X39751Y63722
X40096Y42736
X39624Y43244
X39116Y42736
X38608Y43244
X38116Y42736
X37656Y43688
X37116Y42736
X36576Y43307
X36116Y42736
X34925Y76291
X34417Y61228
X34410Y53884
X37624Y53880
X40577Y71628
X35560Y43307
X34925Y77026
X34163Y58977
X34021Y53213
X38608Y68263
X40979Y68559
X41090Y42730
X34354Y43307
X36031Y78994
X39598Y78994
X37592Y64008
X38862Y64008
X38799Y47498
X38799Y46228
X33018Y72454
X33018Y71755
X33719Y42799
X33242Y43275
X42037Y42545
X39815Y74168
X36640Y50101
X41243Y58420
X36132Y70803
X35433Y71692
X39497Y51554
X38799Y50165
X39688Y62198
X39846Y56388
X34750Y59912
X35091Y53884
X39116Y68771
X35306Y56737
X38481Y56769
X58102Y46037
X56896Y43307
X51371Y42736
X49705Y68072
X49705Y67120
X49705Y64833
X54102Y66548
X56769Y65723
X55499Y69850
X52768Y71374
X52102Y74581
X52033Y79693
X56171Y79693
X49705Y56642
X54292Y50165
X57340Y50546
X53960Y68453
X57467Y49276
X50038Y76708
X49705Y63373
X54419Y64770
X57467Y64008
X57499Y60769
X49737Y51848
X50023Y45402
X49959Y43878
X52563Y47498
X56373Y47498
X51943Y49466
X53833Y46228
X57340Y76518
X58864Y81217
X49403Y80264
X58214Y43371
X54292Y44894
X54737Y53340
X56007Y53276
X50785Y50927
X52102Y73247
X56864Y56515
X51007Y62897
X51325Y61849
X51293Y60706
X57499Y59436
X56197Y72835
X57467Y72835
X56007Y63722
X56352Y42736
X55880Y43244
X55372Y42736
X54864Y43244
X54372Y42736
X53911Y43688
X53372Y42736
X52832Y43307
X52372Y42736
X51181Y76291
X50673Y61228
X50666Y53884
X53880Y53880
X56832Y71628
X51816Y43307
X51181Y77026
X50419Y58977
X50277Y53213
X54864Y68263
X57235Y68559
X57346Y42730
X50609Y43307
X52287Y78994
X55853Y78994
X53848Y64008
X55118Y64008
X55054Y47498
X55054Y46228
X49274Y72454
X49274Y71755
X49974Y42799
X49498Y43275
X58293Y42545
X56070Y74168
X52895Y50101
X57499Y58420
X52387Y70803
X51689Y71692
X55753Y51554
X55054Y50165
X55943Y62198
X56102Y56388
X51005Y59912
X51347Y53884
X55372Y68771
X51562Y56737
X54737Y56769
X74359Y46037
X73152Y43307
X67628Y42736
X65961Y68072
X65961Y67120
X65961Y64833
X70358Y66548
X73025Y65723
X71755Y69850
X69025Y71374
X68358Y74581
X68289Y79693
X72427Y79693
X65961Y56642
X70549Y50165
X73597Y50546
X70216Y68453
X73724Y49276
X66294Y76708
X65961Y63373
X70676Y64770
X73724Y64008
X73755Y60769
X65993Y51848
X66279Y45402
X66215Y43878
X68819Y47498
X72629Y47498
X68199Y49466
X70089Y46228
X73597Y76518
X75121Y81217
X65659Y80264
X74470Y43371
X70549Y44894
X70993Y53340
X72263Y53276
X67041Y50927
X68358Y73247
X73120Y56515
X67263Y62897
X67581Y61849
X67549Y60706
X73755Y59436
X72454Y72835
X73724Y72835
X72263Y63722
X72608Y42736
X72136Y43244
X71628Y42736
X71120Y43244
X70628Y42736
X70168Y43688
X69628Y42736
X69088Y43307
X68628Y42736
X67437Y76291
X66929Y61228
X66922Y53884
X70136Y53880
X73089Y71628
X68072Y43307
X67437Y77026
X66675Y58977
X66533Y53213
X71120Y68263
X73491Y68559
X73602Y42730
X66866Y43307
X68543Y78994
X72110Y78994
X70104Y64008
X71374Y64008
X71311Y47498
X71311Y46228
X65530Y72454
X65530Y71755
X66231Y42799
X65754Y43275
X74549Y42545
X72327Y74168
X69152Y50101
X73755Y58420
X68644Y70803
X67945Y71692
X72009Y51554
X71311Y50165
X72200Y62198
X72358Y56388
X67262Y59912
X67603Y53884
X71628Y68771
X67818Y56737
X70993Y56769
X90614Y46037
X89408Y43307
X83884Y42736
X82217Y68072
X82217Y67120
X82217Y64833
X86614Y66548
X89281Y65723
X88011Y69850
X85281Y71374
X84614Y74581
X84545Y79693
X88683Y79693
X82217Y56642
X86805Y50165
X89852Y50546
X86472Y68453
X89979Y49276
X82550Y76708
X82217Y63373
X86932Y64770
X89979Y64008
X90011Y60769
X82249Y51848
X82535Y45402
X82471Y43878
X85075Y47498
X88885Y47498
X84455Y49466
X86345Y46228
X89852Y76518
X91376Y81217
X81915Y80264
X90726Y43371
X86805Y44894
X87249Y53340
X88519Y53276
X83297Y50927
X84614Y73247
X89376Y56515
X83519Y62897
X83837Y61849
X83805Y60706
X90011Y59436
X88709Y72835
X89979Y72835
X88519Y63722
X88864Y42736
X88392Y43244
X87884Y42736
X87376Y43244
X86884Y42736
X86424Y43688
X85884Y42736
X85344Y43307
X84884Y42736
X83693Y76291
X83185Y61228
X83178Y53884
X86392Y53880
X89344Y71628
X84328Y43307
X83693Y77026
X82931Y58977
X82789Y53213
X87376Y68263
X89747Y68559
X89858Y42730
X83122Y43307
X84799Y78994
X88365Y78994
X86360Y64008
X87630Y64008
X87566Y47498
X87566Y46228
X81786Y72454
X81786Y71755
X82487Y42799
X82010Y43275
X90805Y42545
X88582Y74168
X85408Y50101
X90011Y58420
X84900Y70803
X84201Y71692
X88265Y51554
X87566Y50165
X88455Y62198
X88614Y56388
X83518Y59912
X83859Y53884
X87884Y68771
X84074Y56737
X87249Y56769
X106870Y46037
X105664Y43307
X100139Y42736
X98473Y68072
X98473Y67120
X98473Y64833
X102870Y66548
X105537Y65723
X104267Y69850
X101536Y71374
X100870Y74581
X100801Y79693
X104939Y79693
X98473Y56642
X103060Y50165
X106108Y50546
X102728Y68453
X106235Y49276
X98806Y76708
X98473Y63373
X103187Y64770
X106235Y64008
X106267Y60769
X98505Y51848
X98791Y45402
X98727Y43878
X101331Y47498
X105141Y47498
X100711Y49466
X102601Y46228
X106108Y76518
X107632Y81217
X98171Y80264
X106982Y43371
X103060Y44894
X103505Y53340
X104775Y53276
X99553Y50927
X100870Y73247
X105632Y56515
X99775Y62897
X100093Y61849
X100061Y60706
X106267Y59436
X104965Y72835
X106235Y72835
X104775Y63722
X105120Y42736
X104648Y43244
X104140Y42736
X103632Y43244
X103140Y42736
X102679Y43688
X102140Y42736
X101600Y43307
X101140Y42736
X99949Y76291
X99441Y61228
X99434Y53884
X102648Y53880
X105600Y71628
X100584Y43307
X99949Y77026
X99187Y58977
X99045Y53213
X103632Y68263
X106003Y68559
X106114Y42730
X99377Y43307
X101055Y78994
X104621Y78994
X102616Y64008
X103886Y64008
X103822Y47498
X103822Y46228
X98042Y72454
X98042Y71755
X98742Y42799
X98266Y43275
X107061Y42545
X104838Y74168
X101663Y50101
X106267Y58420
X101155Y70803
X100457Y71692
X104521Y51554
X103822Y50165
X104711Y62198
X104870Y56388
X99773Y59912
X100115Y53884
X104140Y68771
X100330Y56737
X103505Y56769
X123126Y46037
X121920Y43307
X116395Y42736
X114729Y68072
X114729Y67120
X114729Y64833
X119126Y66548
X121793Y65723
X120523Y69850
X117792Y71374
X117126Y74581
X117057Y79693
X121195Y79693
X114729Y56642
X119316Y50165
X122364Y50546
X118984Y68453
X122491Y49276
X115062Y76708
X114729Y63373
X119443Y64770
X122491Y64008
X122523Y60769
X114761Y51848
X115047Y45402
X114983Y43878
X117587Y47498
X121397Y47498
X116967Y49466
X118857Y46228
X122364Y76518
X123888Y81217
X114427Y80264
X123238Y43371
X119316Y44894
X119761Y53340
X121031Y53276
X115809Y50927
X117126Y73247
X121888Y56515
X116031Y62897
X116349Y61849
X116317Y60706
X122523Y59436
X121221Y72835
X122491Y72835
X121031Y63722
X121376Y42736
X120904Y43244
X120396Y42736
X119888Y43244
X119396Y42736
X118935Y43688
X118396Y42736
X117856Y43307
X117396Y42736
X116205Y76291
X115697Y61228
X115690Y53884
X118904Y53880
X121856Y71628
X116840Y43307
X116205Y77026
X115443Y58977
X115301Y53213
X119888Y68263
X122259Y68559
X122370Y42730
X115633Y43307
X117311Y78994
X120877Y78994
X118872Y64008
X120142Y64008
X120078Y47498
X120078Y46228
X114298Y72454
X114298Y71755
X114998Y42799
X114522Y43275
X123317Y42545
X121094Y74168
X117919Y50101
X122523Y58420
X117411Y70803
X116713Y71692
X120777Y51554
X120078Y50165
X120967Y62198
X121126Y56388
X116029Y59912
X116371Y53884
X120396Y68771
X116586Y56737
X119761Y56769
X139383Y46037
X138176Y43307
X132652Y42736
X130985Y68072
X130985Y67120
X130985Y64833
X135382Y66548
X138049Y65723
X136779Y69850
X134049Y71374
X133382Y74581
X133313Y79693
X137451Y79693
X130985Y56642
X135573Y50165
X138621Y50546
X135240Y68453
X138748Y49276
X131318Y76708
X130985Y63373
X135700Y64770
X138748Y64008
X138779Y60769
X131017Y51848
X131303Y45402
X131239Y43878
X133843Y47498
X137653Y47498
X133223Y49466
X135113Y46228
X138621Y76518
X140145Y81217
X130683Y80264
X139494Y43371
X135573Y44894
X136017Y53340
X137287Y53276
X132065Y50927
X133382Y73247
X138144Y56515
X132287Y62897
X132605Y61849
X132573Y60706
X138779Y59436
X137478Y72835
X138748Y72835
X137287Y63722
X137632Y42736
X137160Y43244
X136652Y42736
X136144Y43244
X135652Y42736
X135192Y43688
X134652Y42736
X134112Y43307
X133652Y42736
X132461Y76291
X131953Y61228
X131946Y53884
X135160Y53880
X138113Y71628
X133096Y43307
X132461Y77026
X131699Y58977
X131557Y53213
X136144Y68263
X138515Y68559
X138626Y42730
X131890Y43307
X133567Y78994
X137134Y78994
X135128Y64008
X136398Y64008
X136335Y47498
X136335Y46228
X130554Y72454
X130554Y71755
X131255Y42799
X130778Y43275
X139573Y42545
X137351Y74168
X134176Y50101
X138779Y58420
X133668Y70803
X132969Y71692
X137033Y51554
X136335Y50165
X137224Y62198
X137382Y56388
X132286Y59912
X132627Y53884
X136652Y68771
X132842Y56737
X136017Y56769
X155639Y46037
X154432Y43307
X148908Y42736
X147241Y68072
X147241Y67120
X147241Y64833
X151638Y66548
X154305Y65723
X153035Y69850
X150305Y71374
X149638Y74581
X149569Y79693
X153707Y79693
X147241Y56642
X151829Y50165
X154877Y50546
X151496Y68453
X155004Y49276
X147574Y76708
X147241Y63373
X151956Y64770
X155004Y64008
X155035Y60769
X147273Y51848
X147559Y45402
X147495Y43878
X150099Y47498
X153909Y47498
X149479Y49466
X151369Y46228
X154877Y76518
X156401Y81217
X146939Y80264
X155750Y43371
X151829Y44894
X152273Y53340
X153543Y53276
X148321Y50927
X149638Y73247
X154400Y56515
X148543Y62897
X148861Y61849
X148829Y60706
X155035Y59436
X153734Y72835
X155004Y72835
X153543Y63722
X153888Y42736
X153416Y43244
X152908Y42736
X152400Y43244
X151908Y42736
X151448Y43688
X150908Y42736
X150368Y43307
X149908Y42736
X148717Y76291
X148209Y61228
X148202Y53884
X151416Y53880
X154369Y71628
X149352Y43307
X148717Y77026
X147955Y58977
X147813Y53213
X152400Y68263
X154771Y68559
X154882Y42730
X148146Y43307
X149823Y78994
X153390Y78994
X151384Y64008
X152654Y64008
X152591Y47498
X152591Y46228
X146810Y72454
X146810Y71755
X147511Y42799
X147034Y43275
X155829Y42545
X153607Y74168
X150432Y50101
X155035Y58420
X149924Y70803
X149225Y71692
X153289Y51554
X152591Y50165
X153480Y62198
X153638Y56388
X148542Y59912
X148883Y53884
X152908Y68771
X149098Y56737
X152273Y56769
X9335Y87186
X8128Y84455
X2604Y83884
X937Y109220
X937Y108267
X937Y105981
X5334Y107696
X8001Y106870
X6731Y110998
X4000Y112522
X3334Y115729
X3265Y120840
X7403Y120840
X937Y97790
X5524Y91313
X8573Y91694
X5192Y109601
X8700Y90424
X1270Y117856
X937Y104521
X5651Y105918
X8700Y105156
X8731Y101917
X969Y92996
X1255Y86551
X1191Y85027
X3795Y88646
X7605Y88646
X3175Y90614
X5065Y87376
X8573Y117665
X10097Y122364
X635Y121412
X9446Y84519
X5524Y86043
X5969Y94488
X7239Y94424
X2017Y92075
X3334Y114395
X8096Y97663
X2239Y104045
X2557Y102997
X2525Y101854
X8731Y100584
X7429Y113982
X8700Y113982
X7239Y104870
X7584Y83884
X7112Y84392
X6604Y83884
X6096Y84392
X5604Y83884
X5144Y84836
X4604Y83884
X4064Y84455
X3604Y83884
X2413Y117439
X1905Y102376
X1898Y95032
X5112Y95028
X8064Y112776
X3048Y84455
X2413Y118173
X1651Y100125
X1509Y94361
X6096Y109410
X8467Y109707
X8578Y83878
X1841Y84455
X3519Y120142
X7085Y120142
X5080Y105156
X6350Y105156
X6286Y88646
X6286Y87376
X506Y113601
X506Y112903
X1207Y83947
X730Y84423
X9525Y83693
X7302Y115316
X4128Y91249
X8731Y99568
X3619Y111950
X2921Y112839
X6985Y92702
X6286Y91313
X7175Y103346
X7334Y97536
X2238Y101060
X2579Y95032
X6604Y109918
X2794Y97885
X5969Y97917
X25590Y87186
X24384Y84455
X18860Y83884
X17193Y109220
X17193Y108267
X17193Y105981
X21590Y107696
X24257Y106870
X22987Y110998
X20257Y112522
X19590Y115729
X19521Y120840
X23659Y120840
X17193Y97790
X21781Y91313
X24828Y91694
X21448Y109601
X24955Y90424
X17526Y117856
X17193Y104521
X21907Y105918
X24955Y105156
X24987Y101917
X17225Y92996
X17511Y86551
X17447Y85027
X20051Y88646
X23861Y88646
X19431Y90614
X21321Y87376
X24828Y117665
X26352Y122364
X16891Y121412
X25702Y84519
X21781Y86043
X22225Y94488
X23495Y94424
X18273Y92075
X19590Y114395
X24352Y97663
X18495Y104045
X18813Y102997
X18781Y101854
X24987Y100584
X23685Y113982
X24955Y113982
X23495Y104870
X23840Y83884
X23368Y84392
X22860Y83884
X22352Y84392
X21860Y83884
X21400Y84836
X20860Y83884
X20320Y84455
X19860Y83884
X18669Y117439
X18161Y102376
X18154Y95032
X21368Y95028
X24320Y112776
X19304Y84455
X18669Y118173
X17907Y100125
X17765Y94361
X22352Y109410
X24723Y109707
X24834Y83878
X18098Y84455
X19775Y120142
X23341Y120142
X21336Y105156
X22606Y105156
X22542Y88646
X22542Y87376
X16762Y113601
X16762Y112903
X17463Y83947
X16986Y84423
X25781Y83693
X23558Y115316
X20384Y91249
X24987Y99568
X19876Y111950
X19177Y112839
X23241Y92702
X22542Y91313
X23431Y103346
X23590Y97536
X18494Y101060
X18835Y95032
X22860Y109918
X19050Y97885
X22225Y97917
X41847Y87186
X40640Y84455
X35116Y83884
X33449Y109220
X33449Y108267
X33449Y105981
X37846Y107696
X40513Y106870
X39243Y110998
X36513Y112522
X35846Y115729
X35777Y120840
X39915Y120840
X33449Y97790
X38037Y91313
X41085Y91694
X37704Y109601
X41212Y90424
X33782Y117856
X33449Y104521
X38164Y105918
X41212Y105156
X41243Y101917
X33481Y92996
X33767Y86551
X33703Y85027
X36307Y88646
X40117Y88646
X35687Y90614
X37577Y87376
X41085Y117665
X42609Y122364
X33147Y121412
X41958Y84519
X38037Y86043
X38481Y94488
X39751Y94424
X34529Y92075
X35846Y114395
X40608Y97663
X34751Y104045
X35069Y102997
X35037Y101854
X41243Y100584
X39942Y113982
X41212Y113982
X39751Y104870
X40096Y83884
X39624Y84392
X39116Y83884
X38608Y84392
X38116Y83884
X37656Y84836
X37116Y83884
X36576Y84455
X36116Y83884
X34925Y117439
X34417Y102376
X34410Y95032
X37624Y95028
X40577Y112776
X35560Y84455
X34925Y118173
X34163Y100125
X34021Y94361
X38608Y109410
X40979Y109707
X41090Y83878
X34354Y84455
X36031Y120142
X39598Y120142
X37592Y105156
X38862Y105156
X38799Y88646
X38799Y87376
X33018Y113601
X33018Y112903
X33719Y83947
X33242Y84423
X42037Y83693
X39815Y115316
X36640Y91249
X41243Y99568
X36132Y111950
X35433Y112839
X39497Y92702
X38799Y91313
X39688Y103346
X39846Y97536
X34750Y101060
X35091Y95032
X39116Y109918
X35306Y97885
X38481Y97917
X58102Y87186
X56896Y84455
X51371Y83884
X49705Y109220
X49705Y108267
X49705Y105981
X54102Y107696
X56769Y106870
X55499Y110998
X52768Y112522
X52102Y115729
X52033Y120840
X56171Y120840
X49705Y97790
X54292Y91313
X57340Y91694
X53960Y109601
X57467Y90424
X50038Y117856
X49705Y104521
X54419Y105918
X57467Y105156
X57499Y101917
X49737Y92996
X50023Y86551
X49959Y85027
X52563Y88646
X56373Y88646
X51943Y90614
X53833Y87376
X57340Y117665
X58864Y122364
X49403Y121412
X58214Y84519
X54292Y86043
X54737Y94488
X56007Y94424
X50785Y92075
X52102Y114395
X56864Y97663
X51007Y104045
X51325Y102997
X51293Y101854
X57499Y100584
X56197Y113982
X57467Y113982
X56007Y104870
X56352Y83884
X55880Y84392
X55372Y83884
X54864Y84392
X54372Y83884
X53911Y84836
X53372Y83884
X52832Y84455
X52372Y83884
X51181Y117439
X50673Y102376
X50666Y95032
X53880Y95028
X56832Y112776
X51816Y84455
X51181Y118173
X50419Y100125
X50277Y94361
X54864Y109410
X57235Y109707
X57346Y83878
X50609Y84455
X52287Y120142
X55853Y120142
X53848Y105156
X55118Y105156
X55054Y88646
X55054Y87376
X49274Y113601
X49274Y112903
X49974Y83947
X49498Y84423
X58293Y83693
X56070Y115316
X52895Y91249
X57499Y99568
X52387Y111950
X51689Y112839
X55753Y92702
X55054Y91313
X9335Y4890
X56102Y97536
X51005Y101060
X51347Y95032
X55372Y109918
X51562Y97885
X54737Y97917
X74359Y87186
X73152Y84455
X67628Y83884
X65961Y109220
X65961Y108267
X65961Y105981
X70358Y107696
X73025Y106870
X71755Y110998
X69025Y112522
X68358Y115729
X68289Y120840
X72427Y120840
X65961Y97790
X70549Y91313
X73597Y91694
X70216Y109601
X73724Y90424
X66294Y117856
X65961Y104521
X70676Y105918
X73724Y105156
X73755Y101917
X65993Y92996
X66279Y86551
X66215Y85027
X68819Y88646
X72629Y88646
X68199Y90614
X70089Y87376
X73597Y117665
X75121Y122364
X65659Y121412
X74470Y84519
X70549Y86043
X70993Y94488
X72263Y94424
X67041Y92075
X68358Y114395
X73120Y97663
X67263Y104045
X67581Y102997
X67549Y101854
X73755Y100584
X72454Y113982
X73724Y113982
X72263Y104870
X72608Y83884
X72136Y84392
X71628Y83884
X71120Y84392
X70628Y83884
X70168Y84836
X69628Y83884
X69088Y84455
X68628Y83884
X67437Y117439
X66929Y102376
X66922Y95032
X70136Y95028
X73089Y112776
X68072Y84455
X67437Y118173
X66675Y100125
X66533Y94361
X71120Y109410
X73491Y109707
X73602Y83878
X66866Y84455
X68543Y120142
X72110Y120142
X70104Y105156
X71374Y105156
X71311Y88646
X71311Y87376
X65530Y113601
X65530Y112903
X66231Y83947
X65754Y84423
X74549Y83693
X72327Y115316
X69152Y91249
X73755Y99568
X68644Y111950
X67945Y112839
X72009Y92702
X71311Y91313
X72200Y103346
X72358Y97536
X67262Y101060
X67603Y95032
X71628Y109918
X67818Y97885
X70993Y97917
X90614Y87186
X89408Y84455
X83884Y83884
X82217Y109220
X82217Y108267
X82217Y105981
X86614Y107696
X89281Y106870
X88011Y110998
X85281Y112522
X84614Y115729
X84545Y120840
X88683Y120840
X82217Y97790
X86805Y91313
X89852Y91694
X86472Y109601
X89979Y90424
X82550Y117856
X82217Y104521
X86932Y105918
X89979Y105156
X90011Y101917
X82249Y92996
X82535Y86551
X82471Y85027
X85075Y88646
X88885Y88646
X84455Y90614
X86345Y87376
X89852Y117665
X91376Y122364
X81915Y121412
X90726Y84519
X86805Y86043
X87249Y94488
X88519Y94424
X83297Y92075
X84614Y114395
X89376Y97663
X83519Y104045
X83837Y102997
X83805Y101854
X90011Y100584
X88709Y113982
X89979Y113982
X88519Y104870
X88864Y83884
X88392Y84392
X87884Y83884
X87376Y84392
X86884Y83884
X86424Y84836
X85884Y83884
X85344Y84455
X84884Y83884
X83693Y117439
X83185Y102376
X83178Y95032
X86392Y95028
X89344Y112776
X84328Y84455
X83693Y118173
X82931Y100125
X82789Y94361
X87376Y109410
X89747Y109707
X89858Y83878
X83122Y84455
X84799Y120142
X88365Y120142
X86360Y105156
X87630Y105156
X87566Y88646
X87566Y87376
X81786Y113601
X81786Y112903
X82487Y83947
X82010Y84423
X90805Y83693
X88582Y115316
X85408Y91249
X90011Y99568
X84900Y111950
X84201Y112839
X88265Y92702
X87566Y91313
X88455Y103346
X88614Y97536
X83518Y101060
X83859Y95032
X87884Y109918
X84074Y97885
X87249Y97917
X106870Y87186
X105664Y84455
X100139Y83884
X98473Y109220
X98473Y108267
X98473Y105981
X102870Y107696
X105537Y106870
X104267Y110998
X101536Y112522
X100870Y115729
X100801Y120840
X104939Y120840
X98473Y97790
X103060Y91313
X106108Y91694
X102728Y109601
X106235Y90424
X98806Y117856
X98473Y104521
X103187Y105918
X106235Y105156
X106267Y101917
X98505Y92996
X98791Y86551
X98727Y85027
X101331Y88646
X105141Y88646
X100711Y90614
X102601Y87376
X106108Y117665
X107632Y122364
X98171Y121412
X106982Y84519
X103060Y86043
X103505Y94488
X104775Y94424
X99553Y92075
X100870Y114395
X105632Y97663
X99775Y104045
X100093Y102997
X100061Y101854
X106267Y100584
X104965Y113982
X106235Y113982
X104775Y104870
X105120Y83884
X104648Y84392
X104140Y83884
X103632Y84392
X103140Y83884
X102679Y84836
X102140Y83884
X101600Y84455
X101140Y83884
X99949Y117439
X99441Y102376
X99434Y95032
X102648Y95028
X105600Y112776
X100584Y84455
X99949Y118173
X99187Y100125
X99045Y94361
X103632Y109410
X106003Y109707
X106114Y83878
X99377Y84455
X101055Y120142
X104621Y120142
X102616Y105156
X103886Y105156
X103822Y88646
X103822Y87376
X98042Y113601
X98042Y112903
X98742Y83947
X98266Y84423
X107061Y83693
X104838Y115316
X101663Y91249
X106267Y99568
X101155Y111950
X100457Y112839
X104521Y92702
X103822Y91313
X104711Y103346
X104870Y97536
X99773Y101060
X100115Y95032
X104140Y109918
X100330Y97885
X103505Y97917
X123126Y87186
X121920Y84455
X116395Y83884
X114729Y109220
X114729Y108267
X114729Y105981
X119126Y107696
X121793Y106870
X120523Y110998
X117792Y112522
X117126Y115729
X117057Y120840
X121195Y120840
X114729Y97790
X119316Y91313
X122364Y91694
X118984Y109601
X122491Y90424
X115062Y117856
X114729Y104521
X119443Y105918
X122491Y105156
X122523Y101917
X114761Y92996
X115047Y86551
X114983Y85027
X117587Y88646
X121397Y88646
X116967Y90614
X118857Y87376
X122364Y117665
X123888Y122364
X114427Y121412
X123238Y84519
X119316Y86043
X119761Y94488
X121031Y94424
X115809Y92075
X117126Y114395
X121888Y97663
X116031Y104045
X116349Y102997
X116317Y101854
X122523Y100584
X121221Y113982
X122491Y113982
X121031Y104870
X121376Y83884
X120904Y84392
X120396Y83884
X119888Y84392
X119396Y83884
X118935Y84836
X118396Y83884
X117856Y84455
X117396Y83884
X116205Y117439
X115697Y102376
X115690Y95032
X118904Y95028
X121856Y112776
X116840Y84455
X116205Y118173
X115443Y100125
X115301Y94361
X119888Y109410
X122259Y109707
X122370Y83878
X115633Y84455
X117311Y120142
X120877Y120142
X118872Y105156
X120142Y105156
X120078Y88646
X120078Y87376
X114298Y113601
X114298Y112903
X114998Y83947
X114522Y84423
X123317Y83693
X121094Y115316
X117919Y91249
X122523Y99568
X117411Y111950
X116713Y112839
X120777Y92702
X55943Y103346
X120967Y103346
X121126Y97536
X116029Y101060
X116371Y95032
X120396Y109918
X116586Y97885
X119761Y97917
X139383Y87186
X138176Y84455
X132652Y83884
X130985Y109220
X130985Y108267
X130985Y105981
X135382Y107696
X138049Y106870
X136779Y110998
X134049Y112522
X133382Y115729
X133313Y120840
X137451Y120840
X130985Y97790
X135573Y91313
X138621Y91694
X135240Y109601
X138748Y90424
X131318Y117856
X130985Y104521
X135700Y105918
X138748Y105156
X138779Y101917
X131017Y92996
X131303Y86551
X131239Y85027
X133843Y88646
X137653Y88646
X133223Y90614
X135113Y87376
X138621Y117665
X140145Y122364
X130683Y121412
X139494Y84519
X135573Y86043
X136017Y94488
X137287Y94424
X132065Y92075
X133382Y114395
X138144Y97663
X132287Y104045
X132605Y102997
X132573Y101854
X138779Y100584
X137478Y113982
X138748Y113982
X137287Y104870
X137632Y83884
X137160Y84392
X136652Y83884
X136144Y84392
X135652Y83884
X135192Y84836
X134652Y83884
X134112Y84455
X133652Y83884
X132461Y117439
X131953Y102376
X131946Y95032
X135160Y95028
X138113Y112776
X133096Y84455
X132461Y118173
X131699Y100125
X131557Y94361
X136144Y109410
X138515Y109707
X138626Y83878
X131890Y84455
X133567Y120142
X137134Y120142
X135128Y105156
X136398Y105156
X136335Y88646
X136335Y87376
X130554Y113601
X130554Y112903
X131255Y83947
X130778Y84423
X139573Y83693
X137351Y115316
X134176Y91249
X138779Y99568
X133668Y111950
X132969Y112839
X137033Y92702
X136335Y91313
X137224Y103346
X137382Y97536
X132286Y101060
X132627Y95032
X136652Y109918
X132842Y97885
X136017Y97917
X155639Y87186
X154432Y84455
X148908Y83884
X147241Y109220
X147241Y108267
X147241Y105981
X151638Y107696
X154305Y106870
X153035Y110998
X150305Y112522
X149638Y115729
X149569Y120840
X153707Y120840
X147241Y97790
X151829Y91313
X154877Y91694
X151496Y109601
X155004Y90424
X147574Y117856
X147241Y104521
X151956Y105918
X155004Y105156
X155035Y101917
X147273Y92996
X147559Y86551
X147495Y85027
X150099Y88646
X153909Y88646
X149479Y90614
X151369Y87376
X154877Y117665
X156401Y122364
X146939Y121412
X155750Y84519
X151829Y86043
X152273Y94488
X153543Y94424
X148321Y92075
X149638Y114395
X154400Y97663
X148543Y104045
X148861Y102997
X148829Y101854
X155035Y100584
X153734Y113982
X155004Y113982
X153543Y104870
X153888Y83884
X153416Y84392
X152908Y83884
X152400Y84392
X151908Y83884
X151448Y84836
X150908Y83884
X150368Y84455
X149908Y83884
X148717Y117439
X148209Y102376
X148202Y95032
X151416Y95028
X154369Y112776
X149352Y84455
X148717Y118173
X147955Y100125
X147813Y94361
X152400Y109410
X154771Y109707
X154882Y83878
X148146Y84455
X149823Y120142
X153390Y120142
X151384Y105156
X152654Y105156
X152591Y88646
X152591Y87376
X146810Y113601
X146810Y112903
X147511Y83947
X147034Y84423
X155829Y83693
X153607Y115316
X150432Y91249
X155035Y99568
X149924Y111950
X149225Y112839
X153289Y92702
X152591Y91313
X153480Y103346
X153638Y97536
X148542Y101060
X148883Y95032
X152908Y109918
X149098Y97885
X152273Y97917
X8128Y2159
X2604Y1587
X937Y26924
X937Y25971
X937Y23685
X5334Y25400
X8001Y24574
X6731Y28702
X4000Y30226
X3334Y33433
X3265Y38545
X7403Y38545
X937Y15494
X5524Y9017
X8573Y9398
X5192Y27305
X8700Y8128
X1270Y35560
X937Y22225
X5651Y23622
X8700Y22860
X8731Y19622
X969Y10700
X1255Y4255
X1191Y2731
X3795Y6350
X7605Y6350
X3175Y8319
X5065Y5080
X8573Y35370
X10097Y40069
X635Y39116
X9446Y2223
X5524Y3746
X5969Y12192
X7239Y12128
X2017Y9779
X3334Y32099
X8096Y15367
X2239Y21749
X2557Y20701
X2525Y19558
X8731Y18288
X7429Y31686
X8700Y31686
X7239Y22574
X7584Y1587
X7112Y2096
X6604Y1587
X6096Y2096
X5604Y1587
X5144Y2540
X4604Y1587
X4064Y2159
X3604Y1587
X2413Y35143
X1905Y20080
X1898Y12736
X5112Y12732
X8064Y30480
X3048Y2159
X2413Y35878
X1651Y17829
X1509Y12065
X6096Y27114
X8467Y27411
X8578Y1582
X1841Y2159
X3519Y37846
X7085Y37846
X5080Y22860
X6350Y22860
X6286Y6350
X6286Y5080
X506Y31305
X506Y30607
X1207Y1651
X730Y2127
X9525Y1397
X7302Y33020
X4128Y8954
X8731Y17272
X3619Y29654
X2921Y30543
X6985Y10406
X6286Y9017
X7175Y21050
X7334Y15240
X2238Y18764
X2579Y12736
X6604Y27622
X2794Y15589
X5969Y15621
X25590Y4890
X24384Y2159
X18860Y1587
X17193Y26924
X17193Y25971
X17193Y23685
X21590Y25400
X24257Y24574
X22987Y28702
X20257Y30226
X19590Y33433
X19521Y38545
X23659Y38545
X17193Y15494
X21781Y9017
X24828Y9398
X21448Y27305
X24955Y8128
X17526Y35560
X17193Y22225
X21907Y23622
X24955Y22860
X24987Y19622
X17225Y10700
X17511Y4255
X17447Y2731
X20051Y6350
X23861Y6350
X19431Y8319
X21321Y5080
X24828Y35370
X26352Y40069
X16891Y39116
X25702Y2223
X21781Y3746
X22225Y12192
X23495Y12128
X18273Y9779
X19590Y32099
X24352Y15367
X18495Y21749
X18813Y20701
X18781Y19558
X24987Y18288
X23685Y31686
X24955Y31686
X23495Y22574
X23840Y1587
X23368Y2096
X22860Y1587
X22352Y2096
X21860Y1587
X21400Y2540
X20860Y1587
X20320Y2159
X19860Y1587
X18669Y35143
X18161Y20080
X18154Y12736
X21368Y12732
X24320Y30480
X19304Y2159
X18669Y35878
X17907Y17829
X17765Y12065
X22352Y27114
X24723Y27411
X24834Y1582
X18098Y2159
X19775Y37846
X23341Y37846
X21336Y22860
X22606Y22860
X22542Y6350
X22542Y5080
X16762Y31305
X16762Y30607
X17463Y1651
X16986Y2127
X25781Y1397
X23558Y33020
X20384Y8954
X24987Y17272
X19876Y29654
X19177Y30543
X23241Y10406
X120078Y91313
M30