M48
;GenerationSoftware,Autodesk,EAGLE,9.6.2*%
;CreationDate,2021-08-18T13:36:25Z*%
FMAT,2
ICI,OFF
METRIC,TZ,000.000
T2C0.300
T1C0.508
%
G90
M71
T1
X170434Y96266
X7874Y11430
X7874Y13970
X5334Y11430
X5334Y13970
X2794Y11430
X2794Y13970
X19050Y11430
X19050Y13970
X16510Y11430
X16510Y13970
X13970Y11430
X13970Y13970
X30226Y11430
X30226Y13970
X27686Y11430
X27686Y13970
X25146Y11430
X25146Y13970
X41402Y11430
X41402Y13970
X38862Y11430
X38862Y13970
X36322Y11430
X36322Y13970
X52578Y11430
X52578Y13970
X50038Y11430
X50038Y13970
X47498Y11430
X47498Y13970
X63754Y11430
X63754Y13970
X61214Y11430
X61214Y13970
X58674Y11430
X58674Y13970
X74930Y11430
X74930Y13970
X72390Y11430
X72390Y13970
X69850Y11430
X69850Y13970
X86106Y11430
X86106Y13970
X83566Y11430
X83566Y13970
X81026Y11430
X81026Y13970
X97282Y11430
X97282Y13970
X94742Y11430
X94742Y13970
X92202Y11430
X92202Y13970
X108458Y11430
X108458Y13970
X105918Y11430
X105918Y13970
X103378Y11430
X103378Y13970
X119634Y11430
X119634Y13970
X117094Y11430
X117094Y13970
X114554Y11430
X114554Y13970
X130810Y11430
X130810Y13970
X128270Y11430
X128270Y13970
X125730Y11430
X125730Y13970
X141986Y11430
X141986Y13970
X139446Y11430
X139446Y13970
X136906Y11430
X136906Y13970
X153162Y11430
X153162Y13970
X150622Y11430
X150622Y13970
X148082Y11430
X148082Y13970
X164338Y11430
X164338Y13970
X161798Y11430
X161798Y13970
X159258Y11430
X159258Y13970
X175514Y11430
X175514Y13970
X172974Y11430
X172974Y13970
X170434Y11430
X170434Y13970
X7874Y52578
X7874Y55118
X5334Y52578
X5334Y55118
X2794Y52578
X2794Y55118
X19050Y52578
X19050Y55118
X16510Y52578
X16510Y55118
X13970Y52578
X13970Y55118
X30226Y52578
X30226Y55118
X27686Y52578
X27686Y55118
X25146Y52578
X25146Y55118
X41402Y52578
X41402Y55118
X38862Y52578
X38862Y55118
X36322Y52578
X36322Y55118
X52578Y52578
X52578Y55118
X50038Y52578
X50038Y55118
X47498Y52578
X47498Y55118
X63754Y52578
X63754Y55118
X61214Y52578
X61214Y55118
X58674Y52578
X58674Y55118
X74930Y52578
X74930Y55118
X72390Y52578
X72390Y55118
X69850Y52578
X69850Y55118
X86106Y52578
X86106Y55118
X83566Y52578
X83566Y55118
X81026Y52578
X81026Y55118
X97282Y52578
X97282Y55118
X94742Y52578
X94742Y55118
X92202Y52578
X92202Y55118
X108458Y52578
X108458Y55118
X105918Y52578
X105918Y55118
X103378Y52578
X103378Y55118
X119634Y52578
X119634Y55118
X117094Y52578
X117094Y55118
X114554Y52578
X114554Y55118
X130810Y52578
X130810Y55118
X128270Y52578
X128270Y55118
X125730Y52578
X125730Y55118
X141986Y52578
X141986Y55118
X139446Y52578
X139446Y55118
X136906Y52578
X136906Y55118
X153162Y52578
X153162Y55118
X150622Y52578
X150622Y55118
X148082Y52578
X148082Y55118
X164338Y52578
X164338Y55118
X161798Y52578
X161798Y55118
X159258Y52578
X159258Y55118
X175514Y52578
X175514Y55118
X172974Y52578
X172974Y55118
X170434Y52578
X170434Y55118
X7874Y93726
X7874Y96266
X5334Y93726
X5334Y96266
X2794Y93726
X2794Y96266
X19050Y93726
X19050Y96266
X16510Y93726
X16510Y96266
X13970Y93726
X13970Y96266
X30226Y93726
X30226Y96266
X27686Y93726
X27686Y96266
X25146Y93726
X25146Y96266
X41402Y93726
X41402Y96266
X38862Y93726
X38862Y96266
X36322Y93726
X36322Y96266
X52578Y93726
X52578Y96266
X50038Y93726
X50038Y96266
X47498Y93726
X47498Y96266
X63754Y93726
X63754Y96266
X61214Y93726
X61214Y96266
X58674Y93726
X58674Y96266
X74930Y93726
X74930Y96266
X72390Y93726
X72390Y96266
X69850Y93726
X69850Y96266
X86106Y93726
X86106Y96266
X83566Y93726
X83566Y96266
X81026Y93726
X81026Y96266
X97282Y93726
X97282Y96266
X94742Y93726
X94742Y96266
X92202Y93726
X92202Y96266
X108458Y93726
X108458Y96266
X105918Y93726
X105918Y96266
X103378Y93726
X103378Y96266
X119634Y93726
X119634Y96266
X117094Y93726
X117094Y96266
X114554Y93726
X114554Y96266
X130810Y93726
X130810Y96266
X128270Y93726
X128270Y96266
X125730Y93726
X125730Y96266
X141986Y93726
X141986Y96266
X139446Y93726
X139446Y96266
X136906Y93726
X136906Y96266
X153162Y93726
X153162Y96266
X150622Y93726
X150622Y96266
X148082Y93726
X148082Y96266
X164338Y93726
X164338Y96266
X161798Y93726
X161798Y96266
X159258Y93726
X159258Y96266
X175514Y93726
X175514Y96266
X172974Y93726
X172974Y96266
X170434Y93726
T2
X38862Y25400
X41529Y24574
X40259Y28702
X37529Y30226
X36862Y33433
X36793Y38545
X40931Y38545
X34465Y15494
X39053Y9017
X42101Y9398
X38720Y27305
X42228Y8128
X34798Y35560
X34465Y22225
X39180Y23622
X42228Y22860
X42259Y19622
X34497Y10700
X34783Y4255
X34719Y2731
X37323Y6350
X41133Y6350
X36703Y8319
X38593Y5080
X42101Y35370
X43625Y40069
X34163Y39116
X42974Y2223
X39053Y3746
X39497Y12192
X40767Y12128
X35545Y9779
X36735Y32258
X41624Y15367
X35767Y21749
X35862Y20542
X36656Y17558
X42259Y18288
X40958Y31686
X42259Y31401
X40767Y22574
X41112Y1587
X40640Y2096
X40132Y1587
X39624Y2096
X39132Y1587
X38672Y2540
X38132Y1587
X37592Y2159
X37132Y1587
X35941Y35143
X35782Y19668
X35426Y12736
X38640Y12732
X41593Y30480
X40242Y27639
X36576Y2159
X35941Y35878
X35179Y17829
X35037Y12065
X39624Y27114
X41995Y27411
X42106Y1582
X35370Y2159
X37047Y37846
X40614Y37846
X38608Y22860
X39878Y22860
X39815Y6350
X39815Y5080
X34034Y31305
X34034Y30607
X34735Y1651
X34258Y2127
X43053Y1397
X40831Y33020
X37656Y8954
X42259Y17272
X37148Y29654
X36449Y30543
X40513Y10406
X39815Y9017
X40704Y21050
X40862Y15240
X35766Y18796
X36107Y12736
X36322Y15589
X39497Y15621
X54038Y4890
X52832Y2159
X47307Y1587
X45641Y26924
X45641Y25971
X45641Y23685
X50038Y25400
X52705Y24574
X51435Y28702
X48704Y30226
X48038Y33433
X47969Y38545
X52107Y38545
X45641Y15494
X50228Y9017
X53276Y9398
X49896Y27305
X53403Y8128
X45974Y35560
X45641Y22225
X50355Y23622
X53403Y22860
X53435Y19622
X45673Y10700
X45959Y4255
X45895Y2731
X48499Y6350
X52309Y6350
X47879Y8319
X49769Y5080
X53276Y35370
X54800Y40069
X45339Y39116
X54150Y2223
X50228Y3746
X50673Y12192
X51943Y12128
X46721Y9779
X47911Y32258
X52800Y15367
X46943Y21749
X47038Y20542
X47832Y17558
X53435Y18288
X52133Y31686
X53435Y31401
X51943Y22574
X52288Y1587
X51816Y2096
X51308Y1587
X50800Y2096
X50308Y1587
X49847Y2540
X49308Y1587
X48768Y2159
X48308Y1587
X47117Y35143
X46958Y19668
X46602Y12736
X49816Y12732
X52768Y30480
X51418Y27639
X47752Y2159
X47117Y35878
X46355Y17829
X46213Y12065
X50800Y27114
X53171Y27411
X53282Y1582
X46545Y2159
X48223Y37846
X51789Y37846
X49784Y22860
X51054Y22860
X50990Y6350
X50990Y5080
X45210Y31305
X45210Y30607
X45910Y1651
X45434Y2127
X54229Y1397
X52006Y33020
X48831Y8954
X53435Y17272
X48323Y29654
X47625Y30543
X51689Y10406
X50990Y9017
X51879Y21050
X52038Y15240
X46941Y18796
X47283Y12736
X47498Y15589
X50673Y15621
X65214Y4890
X64008Y2159
X58483Y1587
X56817Y26924
X56817Y25971
X56817Y23685
X61214Y25400
X63881Y24574
X62611Y28702
X59880Y30226
X59214Y33433
X59145Y38545
X63283Y38545
X56817Y15494
X61404Y9017
X64452Y9398
X61072Y27305
X64579Y8128
X57150Y35560
X56817Y22225
X61531Y23622
X64579Y22860
X64611Y19622
X56849Y10700
X57135Y4255
X57071Y2731
X59675Y6350
X63485Y6350
X59055Y8319
X60945Y5080
X64452Y35370
X65977Y40069
X56515Y39116
X65326Y2223
X61404Y3746
X61849Y12192
X63119Y12128
X57897Y9779
X59087Y32258
X63976Y15367
X58119Y21749
X58214Y20542
X59008Y17558
X64611Y18288
X63309Y31686
X64611Y31401
X63119Y22574
X63464Y1587
X62992Y2096
X62484Y1587
X61976Y2096
X61484Y1587
X61023Y2540
X60484Y1587
X59944Y2159
X59484Y1587
X58293Y35143
X58134Y19668
X57778Y12736
X60992Y12732
X63944Y30480
X62594Y27639
X58928Y2159
X58293Y35878
X57531Y17829
X57389Y12065
X61976Y27114
X64347Y27411
X64458Y1582
X57721Y2159
X59399Y37846
X62965Y37846
X60960Y22860
X62230Y22860
X62166Y6350
X62166Y5080
X56386Y31305
X56386Y30607
X57086Y1651
X56610Y2127
X65405Y1397
X63182Y33020
X60007Y8954
X64611Y17272
X59499Y29654
X58801Y30543
X62865Y10406
X62166Y9017
X63055Y21050
X63214Y15240
X58117Y18796
X58459Y12736
X58674Y15589
X61849Y15621
X76391Y4890
X75184Y2159
X69660Y1587
X67993Y26924
X67993Y25971
X67993Y23685
X72390Y25400
X75057Y24574
X73787Y28702
X71057Y30226
X70390Y33433
X70321Y38545
X74459Y38545
X67993Y15494
X72581Y9017
X75629Y9398
X72248Y27305
X75756Y8128
X68326Y35560
X67993Y22225
X72708Y23622
X75756Y22860
X75787Y19622
X68025Y10700
X68311Y4255
X68247Y2731
X70851Y6350
X74661Y6350
X70231Y8319
X72121Y5080
X75629Y35370
X77153Y40069
X67691Y39116
X76502Y2223
X72581Y3746
X73025Y12192
X74295Y12128
X69073Y9779
X70263Y32258
X75152Y15367
X69295Y21749
X69390Y20542
X70184Y17558
X75787Y18288
X74486Y31686
X75787Y31401
X74295Y22574
X74640Y1587
X74168Y2096
X73660Y1587
X73152Y2096
X72660Y1587
X72200Y2540
X71660Y1587
X71120Y2159
X70660Y1587
X69469Y35143
X69310Y19668
X68954Y12736
X72168Y12732
X75121Y30480
X73770Y27639
X70104Y2159
X69469Y35878
X68707Y17829
X68565Y12065
X73152Y27114
X75523Y27411
X75634Y1582
X68898Y2159
X70575Y37846
X74142Y37846
X72136Y22860
X73406Y22860
X73343Y6350
X73343Y5080
X67562Y31305
X67562Y30607
X68263Y1651
X67786Y2127
X76581Y1397
X74359Y33020
X71184Y8954
X75787Y17272
X70676Y29654
X69977Y30543
X74041Y10406
X73343Y9017
X74232Y21050
X74390Y15240
X69294Y18796
X69635Y12736
X69850Y15589
X73025Y15621
X87566Y4890
X86360Y2159
X80836Y1587
X79169Y26924
X79169Y25971
X79169Y23685
X83566Y25400
X86233Y24574
X84963Y28702
X82233Y30226
X81566Y33433
X81497Y38545
X85635Y38545
X79169Y15494
X83757Y9017
X86805Y9398
X83424Y27305
X86932Y8128
X79502Y35560
X79169Y22225
X83884Y23622
X86932Y22860
X86963Y19622
X79201Y10700
X79487Y4255
X79423Y2731
X82027Y6350
X85837Y6350
X81407Y8319
X83297Y5080
X86805Y35370
X88328Y40069
X78867Y39116
X87678Y2223
X83757Y3746
X84201Y12192
X85471Y12128
X80249Y9779
X81439Y32258
X86328Y15367
X80471Y21749
X80566Y20542
X81360Y17558
X86963Y18288
X85662Y31686
X86963Y31401
X85471Y22574
X85816Y1587
X85344Y2096
X84836Y1587
X84328Y2096
X83836Y1587
X83376Y2540
X82836Y1587
X82296Y2159
X81836Y1587
X80645Y35143
X80486Y19668
X80130Y12736
X83344Y12732
X86297Y30480
X84946Y27639
X81280Y2159
X80645Y35878
X79883Y17829
X79741Y12065
X84328Y27114
X86699Y27411
X86810Y1582
X80074Y2159
X81751Y37846
X85318Y37846
X83312Y22860
X84582Y22860
X84519Y6350
X84519Y5080
X78738Y31305
X78738Y30607
X79439Y1651
X78962Y2127
X87757Y1397
X85535Y33020
X82360Y8954
X86963Y17272
X81852Y29654
X81153Y30543
X85217Y10406
X84519Y9017
X85408Y21050
X85566Y15240
X80470Y18796
X80811Y12736
X81026Y15589
X84201Y15621
X98742Y4890
X97536Y2159
X92011Y1587
X90345Y26924
X90345Y25971
X90345Y23685
X94742Y25400
X97409Y24574
X96139Y28702
X93408Y30226
X92742Y33433
X92673Y38545
X96811Y38545
X90345Y15494
X94932Y9017
X97980Y9398
X94600Y27305
X98107Y8128
X90678Y35560
X90345Y22225
X95059Y23622
X98107Y22860
X98139Y19622
X90377Y10700
X90663Y4255
X90599Y2731
X93203Y6350
X97013Y6350
X92583Y8319
X94473Y5080
X97980Y35370
X99504Y40069
X90043Y39116
X98854Y2223
X94932Y3746
X95377Y12192
X96647Y12128
X91425Y9779
X92615Y32258
X97504Y15367
X91647Y21749
X91742Y20542
X92536Y17558
X98139Y18288
X96837Y31686
X98139Y31401
X96647Y22574
X96992Y1587
X96520Y2096
X96012Y1587
X95504Y2096
X95012Y1587
X94551Y2540
X94012Y1587
X93472Y2159
X93012Y1587
X91821Y35143
X91662Y19668
X91306Y12736
X94520Y12732
X97472Y30480
X96122Y27639
X92456Y2159
X91821Y35878
X91059Y17829
X90917Y12065
X95504Y27114
X97875Y27411
X97986Y1582
X91249Y2159
X92927Y37846
X96493Y37846
X94488Y22860
X95758Y22860
X95694Y6350
X95694Y5080
X89914Y31305
X89914Y30607
X90614Y1651
X90138Y2127
X98933Y1397
X96710Y33020
X93535Y8954
X98139Y17272
X93027Y29654
X92329Y30543
X96393Y10406
X95694Y9017
X96583Y21050
X96742Y15240
X91645Y18796
X91987Y12736
X92202Y15589
X95377Y15621
X109918Y4890
X108712Y2159
X103187Y1587
X101521Y26924
X101521Y25971
X101521Y23685
X105918Y25400
X108585Y24574
X107315Y28702
X104584Y30226
X103918Y33433
X103849Y38545
X107987Y38545
X101521Y15494
X106108Y9017
X109156Y9398
X105776Y27305
X109283Y8128
X101854Y35560
X101521Y22225
X106235Y23622
X109283Y22860
X109315Y19622
X101553Y10700
X101839Y4255
X101775Y2731
X104379Y6350
X108189Y6350
X103759Y8319
X105649Y5080
X109156Y35370
X110680Y40069
X101219Y39116
X110030Y2223
X106108Y3746
X106553Y12192
X107823Y12128
X102601Y9779
X103791Y32258
X108680Y15367
X102823Y21749
X102918Y20542
X103712Y17558
X109315Y18288
X108013Y31686
X109315Y31401
X107823Y22574
X108168Y1587
X107696Y2096
X107188Y1587
X106680Y2096
X106188Y1587
X105727Y2540
X105188Y1587
X104648Y2159
X104188Y1587
X102997Y35143
X102838Y19668
X102482Y12736
X105696Y12732
X108648Y30480
X107298Y27639
X103632Y2159
X102997Y35878
X102235Y17829
X102093Y12065
X106680Y27114
X109051Y27411
X109162Y1582
X102425Y2159
X104103Y37846
X107669Y37846
X105664Y22860
X106934Y22860
X106870Y6350
X106870Y5080
X101090Y31305
X101090Y30607
X101790Y1651
X101314Y2127
X110109Y1397
X107886Y33020
X104711Y8954
X109315Y17272
X104203Y29654
X103505Y30543
X107569Y10406
X106870Y9017
X107759Y21050
X107918Y15240
X102821Y18796
X103163Y12736
X103378Y15589
X106553Y15621
X121094Y4890
X119888Y2159
X114363Y1587
X112697Y26924
X112697Y25971
X112697Y23685
X117094Y25400
X119761Y24574
X118491Y28702
X115760Y30226
X115094Y33433
X115025Y38545
X119163Y38545
X112697Y15494
X117284Y9017
X120332Y9398
X116952Y27305
X120459Y8128
X113030Y35560
X112697Y22225
X117411Y23622
X120459Y22860
X120491Y19622
X112729Y10700
X113015Y4255
X112951Y2731
X115555Y6350
X119365Y6350
X114935Y8319
X116825Y5080
X120332Y35370
X121856Y40069
X112395Y39116
X121206Y2223
X117284Y3746
X117729Y12192
X118999Y12128
X113777Y9779
X114967Y32258
X119856Y15367
X113999Y21749
X114094Y20542
X114888Y17558
X120491Y18288
X119189Y31686
X120491Y31401
X118999Y22574
X119344Y1587
X118872Y2096
X118364Y1587
X117856Y2096
X117364Y1587
X116903Y2540
X116364Y1587
X115824Y2159
X115364Y1587
X114173Y35143
X114014Y19668
X113658Y12736
X116872Y12732
X119824Y30480
X118474Y27639
X114808Y2159
X114173Y35878
X113411Y17829
X113269Y12065
X117856Y27114
X120227Y27411
X120338Y1582
X113601Y2159
X115279Y37846
X118845Y37846
X116840Y22860
X118110Y22860
X118046Y6350
X118046Y5080
X112266Y31305
X112266Y30607
X112966Y1651
X112490Y2127
X121285Y1397
X119062Y33020
X115887Y8954
X120491Y17272
X115379Y29654
X114681Y30543
X118745Y10406
X118046Y9017
X118935Y21050
X119094Y15240
X113997Y18796
X114339Y12736
X114554Y15589
X117729Y15621
X132271Y4890
X131064Y2159
X125539Y1587
X123873Y26924
X123873Y25971
X123873Y23685
X128270Y25400
X130937Y24574
X129667Y28702
X126936Y30226
X126270Y33433
X126201Y38545
X130339Y38545
X123873Y15494
X128460Y9017
X131509Y9398
X128128Y27305
X131636Y8128
X124206Y35560
X123873Y22225
X128587Y23622
X131636Y22860
X131667Y19622
X123905Y10700
X124191Y4255
X124127Y2731
X126731Y6350
X130541Y6350
X126111Y8319
X128001Y5080
X131509Y35370
X133033Y40069
X123571Y39116
X132382Y2223
X128460Y3746
X128905Y12192
X130175Y12128
X124953Y9779
X126143Y32258
X131032Y15367
X125175Y21749
X125270Y20542
X126064Y17558
X131667Y18288
X130365Y31686
X131667Y31401
X130175Y22574
X130520Y1587
X130048Y2096
X129540Y1587
X129032Y2096
X128540Y1587
X128079Y2540
X127540Y1587
X127000Y2159
X126540Y1587
X125349Y35143
X125190Y19668
X124834Y12736
X128048Y12732
X131000Y30480
X129650Y27639
X125984Y2159
X125349Y35878
X124587Y17829
X124445Y12065
X129032Y27114
X131403Y27411
X131514Y1582
X124777Y2159
X126455Y37846
X130021Y37846
X128016Y22860
X129286Y22860
X129222Y6350
X129222Y5080
X123442Y31305
X123442Y30607
X124142Y1651
X123666Y2127
X132461Y1397
X130238Y33020
X127063Y8954
X131667Y17272
X126555Y29654
X125857Y30543
X129921Y10406
X129222Y9017
X130111Y21050
X130270Y15240
X125173Y18796
X125515Y12736
X125730Y15589
X128905Y15621
X143447Y4890
X142240Y2159
X136716Y1587
X135049Y26924
X135049Y25971
X135049Y23685
X139446Y25400
X142113Y24574
X140843Y28702
X138113Y30226
X137446Y33433
X137377Y38545
X141515Y38545
X135049Y15494
X139637Y9017
X142685Y9398
X139304Y27305
X142812Y8128
X135382Y35560
X135049Y22225
X139764Y23622
X142812Y22860
X142843Y19622
X135081Y10700
X135367Y4255
X135303Y2731
X137907Y6350
X141717Y6350
X137287Y8319
X139177Y5080
X142685Y35370
X144209Y40069
X134747Y39116
X143558Y2223
X139637Y3746
X140081Y12192
X141351Y12128
X136129Y9779
X137319Y32258
X142208Y15367
X136351Y21749
X136446Y20542
X137240Y17558
X142843Y18288
X141542Y31686
X142843Y31401
X141351Y22574
X141696Y1587
X141224Y2096
X140716Y1587
X140208Y2096
X139716Y1587
X139256Y2540
X138716Y1587
X138176Y2159
X137716Y1587
X136525Y35143
X136366Y19668
X136010Y12736
X139224Y12732
X142177Y30480
X140826Y27639
X137160Y2159
X136525Y35878
X135763Y17829
X135621Y12065
X140208Y27114
X142579Y27411
X142690Y1582
X135954Y2159
X137631Y37846
X141198Y37846
X139192Y22860
X140462Y22860
X140399Y6350
X140399Y5080
X134618Y31305
X134618Y30607
X135319Y1651
X134842Y2127
X143637Y1397
X141415Y33020
X138240Y8954
X142843Y17272
X137732Y29654
X137033Y30543
X141097Y10406
X140399Y9017
X141288Y21050
X141446Y15240
X136350Y18796
X136691Y12736
X136906Y15589
X140081Y15621
X154623Y4890
X153416Y2159
X147892Y1587
X146225Y26924
X146225Y25971
X146225Y23685
X150622Y25400
X153289Y24574
X152019Y28702
X149289Y30226
X148622Y33433
X148553Y38545
X152691Y38545
X146225Y15494
X150813Y9017
X153861Y9398
X150480Y27305
X153988Y8128
X146558Y35560
X146225Y22225
X150940Y23622
X153988Y22860
X154019Y19622
X146257Y10700
X146543Y4255
X146479Y2731
X149083Y6350
X152893Y6350
X148463Y8319
X150353Y5080
X153861Y35370
X155385Y40069
X145923Y39116
X154734Y2223
X150813Y3746
X151257Y12192
X152527Y12128
X147305Y9779
X148495Y32258
X153384Y15367
X147527Y21749
X147622Y20542
X148416Y17558
X154019Y18288
X152718Y31686
X154019Y31401
X152527Y22574
X152872Y1587
X152400Y2096
X151892Y1587
X151384Y2096
X150892Y1587
X150432Y2540
X149892Y1587
X149352Y2159
X148892Y1587
X147701Y35143
X147542Y19668
X147186Y12736
X150400Y12732
X153353Y30480
X152002Y27639
X148336Y2159
X147701Y35878
X146939Y17829
X146797Y12065
X151384Y27114
X153755Y27411
X153866Y1582
X147130Y2159
X148807Y37846
X152374Y37846
X150368Y22860
X151638Y22860
X151575Y6350
X151575Y5080
X145794Y31305
X145794Y30607
X146495Y1651
X146018Y2127
X154813Y1397
X152591Y33020
X149416Y8954
X154019Y17272
X148908Y29654
X148209Y30543
X152273Y10406
X151575Y9017
X152464Y21050
X152622Y15240
X147526Y18796
X147867Y12736
X148082Y15589
X151257Y15621
X165799Y4890
X164592Y2159
X159068Y1587
X157401Y26924
X157401Y25971
X157401Y23685
X161798Y25400
X164465Y24574
X163195Y28702
X160465Y30226
X159798Y33433
X159729Y38545
X163867Y38545
X157401Y15494
X161989Y9017
X165037Y9398
X161656Y27305
X165164Y8128
X157734Y35560
X157401Y22225
X162116Y23622
X165164Y22860
X165195Y19622
X157433Y10700
X157719Y4255
X157655Y2731
X160259Y6350
X164069Y6350
X159639Y8319
X161529Y5080
X165037Y35370
X166561Y40069
X157099Y39116
X165910Y2223
X161989Y3746
X162433Y12192
X163703Y12128
X158481Y9779
X159671Y32258
X164560Y15367
X158703Y21749
X158798Y20542
X159592Y17558
X165195Y18288
X163894Y31686
X165195Y31401
X163703Y22574
X164048Y1587
X163576Y2096
X163068Y1587
X162560Y2096
X162068Y1587
X161608Y2540
X161068Y1587
X160528Y2159
X160068Y1587
X158877Y35143
X158718Y19668
X158362Y12736
X161576Y12732
X164529Y30480
X163178Y27639
X159512Y2159
X158877Y35878
X158115Y17829
X157973Y12065
X162560Y27114
X164931Y27411
X165042Y1582
X158306Y2159
X159983Y37846
X163550Y37846
X161544Y22860
X162814Y22860
X162751Y6350
X162751Y5080
X156970Y31305
X156970Y30607
X157671Y1651
X157194Y2127
X165989Y1397
X163767Y33020
X160592Y8954
X165195Y17272
X160084Y29654
X159385Y30543
X163449Y10406
X162751Y9017
X163640Y21050
X163798Y15240
X158702Y18796
X159043Y12736
X159258Y15589
X162433Y15621
X176974Y4890
X175768Y2159
X170244Y1587
X168577Y26924
X168577Y25971
X168577Y23685
X172974Y25400
X175641Y24574
X174371Y28702
X171641Y30226
X170974Y33433
X170905Y38545
X175043Y38545
X168577Y15494
X173165Y9017
X176212Y9398
X172832Y27305
X176339Y8128
X168910Y35560
X168577Y22225
X173292Y23622
X176339Y22860
X176371Y19622
X168609Y10700
X168895Y4255
X168831Y2731
X171435Y6350
X175245Y6350
X170815Y8319
X172705Y5080
X176212Y35370
X177736Y40069
X168275Y39116
X177086Y2223
X173165Y3746
X173609Y12192
X174879Y12128
X169657Y9779
X170847Y32258
X175736Y15367
X169879Y21749
X169974Y20542
X170768Y17558
X176371Y18288
X175069Y31686
X176371Y31401
X174879Y22574
X175224Y1587
X174752Y2096
X174244Y1587
X173736Y2096
X173244Y1587
X172784Y2540
X172244Y1587
X171704Y2159
X171244Y1587
X170053Y35143
X169894Y19668
X169538Y12736
X172752Y12732
X175704Y30480
X174354Y27639
X170688Y2159
X170053Y35878
X169291Y17829
X169149Y12065
X173736Y27114
X176107Y27411
X176218Y1582
X169482Y2159
X171159Y37846
X174726Y37846
X172720Y22860
X173990Y22860
X173927Y6350
X173927Y5080
X168146Y31305
X168146Y30607
X168847Y1651
X168370Y2127
X177165Y1397
X174942Y33020
X171768Y8954
X176371Y17272
X171260Y29654
X170561Y30543
X174625Y10406
X173927Y9017
X174815Y21050
X174974Y15240
X169878Y18796
X170219Y12736
X170434Y15589
X173609Y15621
X9335Y46037
X8128Y43307
X2604Y42736
X937Y68072
X937Y67120
X937Y64833
X5334Y66548
X8001Y65723
X6731Y69850
X4000Y71374
X3334Y74581
X3265Y79693
X7403Y79693
X937Y56642
X5524Y50165
X8573Y50546
X5192Y68453
X8700Y49276
X1270Y76708
X937Y63373
X5651Y64770
X8700Y64008
X8731Y60769
X969Y51848
X1255Y45402
X1191Y43878
X3795Y47498
X7605Y47498
X3175Y49466
X5065Y46228
X8573Y76518
X10097Y81217
X635Y80264
X9446Y43371
X5524Y44894
X5969Y53340
X7239Y53276
X2017Y50927
X3207Y73406
X8096Y56515
X2239Y62897
X2334Y61690
X3128Y58706
X8731Y59436
X7429Y72835
X8731Y72549
X7239Y63722
X7584Y42736
X7112Y43244
X6604Y42736
X6096Y43244
X5604Y42736
X5144Y43688
X4604Y42736
X4064Y43307
X3604Y42736
X2413Y76291
X2254Y60815
X1898Y53884
X5112Y53880
X8064Y71628
X6714Y68787
X3048Y43307
X2413Y77026
X1651Y58977
X1509Y53213
X6096Y68263
X8467Y68559
X8578Y42730
X1841Y43307
X3519Y78994
X7085Y78994
X5080Y64008
X6350Y64008
X6286Y47498
X6286Y46228
X506Y72454
X506Y71755
X1207Y42799
X730Y43275
X9525Y42545
X7302Y74168
X4128Y50101
X8731Y58420
X3619Y70803
X2921Y71692
X6985Y51554
X6286Y50165
X7175Y62198
X7334Y56388
X2238Y59944
X2579Y53884
X2794Y56737
X5969Y56769
X20511Y46037
X19304Y43307
X13779Y42736
X12113Y68072
X12113Y67120
X12113Y64833
X16510Y66548
X19177Y65723
X17907Y69850
X15176Y71374
X14510Y74581
X14441Y79693
X18579Y79693
X12113Y56642
X16701Y50165
X19749Y50546
X16368Y68453
X19876Y49276
X12446Y76708
X12113Y63373
X16828Y64770
X19876Y64008
X19907Y60769
X12145Y51848
X12431Y45402
X12367Y43878
X14971Y47498
X18781Y47498
X14351Y49466
X16241Y46228
X19749Y76518
X21273Y81217
X11811Y80264
X20622Y43371
X16701Y44894
X17145Y53340
X18415Y53276
X13193Y50927
X14383Y73406
X19272Y56515
X13415Y62897
X13510Y61690
X14304Y58706
X19907Y59436
X18606Y72835
X19907Y72549
X18415Y63722
X18760Y42736
X18288Y43244
X17780Y42736
X17272Y43244
X16780Y42736
X16319Y43688
X15780Y42736
X15240Y43307
X14780Y42736
X13589Y76291
X13430Y60815
X13074Y53884
X16288Y53880
X19241Y71628
X17890Y68787
X14224Y43307
X13589Y77026
X12827Y58977
X12685Y53213
X17272Y68263
X19643Y68559
X19754Y42730
X13017Y43307
X14695Y78994
X18262Y78994
X16256Y64008
X17526Y64008
X17463Y47498
X17463Y46228
X11682Y72454
X11682Y71755
X12382Y42799
X11906Y43275
X20701Y42545
X18479Y74168
X15303Y50101
X19907Y58420
X14795Y70803
X14097Y71692
X18161Y51554
X17463Y50165
X18352Y62198
X18510Y56388
X13413Y59944
X13755Y53884
X13970Y56737
X17145Y56769
X31686Y46037
X30480Y43307
X24955Y42736
X23289Y68072
X23289Y67120
X23289Y64833
X27686Y66548
X30353Y65723
X29083Y69850
X26352Y71374
X25686Y74581
X25617Y79693
X29755Y79693
X23289Y56642
X27876Y50165
X30924Y50546
X27544Y68453
X31051Y49276
X23622Y76708
X23289Y63373
X28003Y64770
X31051Y64008
X31083Y60769
X23321Y51848
X23607Y45402
X23543Y43878
X26147Y47498
X29957Y47498
X25527Y49466
X27417Y46228
X30924Y76518
X32448Y81217
X22987Y80264
X31798Y43371
X27876Y44894
X28321Y53340
X29591Y53276
X24369Y50927
X25559Y73406
X30448Y56515
X24591Y62897
X24686Y61690
X25480Y58706
X31083Y59436
X29781Y72835
X31083Y72549
X29591Y63722
X29936Y42736
X29464Y43244
X28956Y42736
X28448Y43244
X27956Y42736
X27495Y43688
X26956Y42736
X26416Y43307
X25956Y42736
X24765Y76291
X24606Y60815
X24250Y53884
X27464Y53880
X30416Y71628
X29066Y68787
X25400Y43307
X24765Y77026
X24003Y58977
X23861Y53213
X28448Y68263
X30819Y68559
X30930Y42730
X24193Y43307
X25871Y78994
X29437Y78994
X27432Y64008
X28702Y64008
X28638Y47498
X28638Y46228
X22858Y72454
X22858Y71755
X23558Y42799
X23082Y43275
X31877Y42545
X29654Y74168
X26479Y50101
X31083Y58420
X25971Y70803
X25273Y71692
X29337Y51554
X28638Y50165
X29527Y62198
X29686Y56388
X24589Y59944
X24931Y53884
X25146Y56737
X28321Y56769
X42863Y46037
X41656Y43307
X36132Y42736
X34465Y68072
X34465Y67120
X34465Y64833
X38862Y66548
X41529Y65723
X40259Y69850
X37529Y71374
X36862Y74581
X36793Y79693
X40931Y79693
X34465Y56642
X39053Y50165
X42101Y50546
X38720Y68453
X42228Y49276
X34798Y76708
X34465Y63373
X39180Y64770
X42228Y64008
X42259Y60769
X34497Y51848
X34783Y45402
X34719Y43878
X37323Y47498
X41133Y47498
X36703Y49466
X38593Y46228
X42101Y76518
X43625Y81217
X34163Y80264
X42974Y43371
X39053Y44894
X39497Y53340
X40767Y53276
X35545Y50927
X36735Y73406
X41624Y56515
X35767Y62897
X35862Y61690
X36656Y58706
X42259Y59436
X40958Y72835
X42259Y72549
X40767Y63722
X41112Y42736
X40640Y43244
X40132Y42736
X39624Y43244
X39132Y42736
X38672Y43688
X38132Y42736
X37592Y43307
X37132Y42736
X35941Y76291
X35782Y60815
X35426Y53884
X38640Y53880
X41593Y71628
X40242Y68787
X36576Y43307
X35941Y77026
X35179Y58977
X35037Y53213
X39624Y68263
X41995Y68559
X42106Y42730
X35370Y43307
X37047Y78994
X40614Y78994
X38608Y64008
X39878Y64008
X39815Y47498
X39815Y46228
X34034Y72454
X34034Y71755
X34735Y42799
X34258Y43275
X43053Y42545
X40831Y74168
X37656Y50101
X42259Y58420
X37148Y70803
X36449Y71692
X40513Y51554
X39815Y50165
X40704Y62198
X40862Y56388
X35766Y59944
X36107Y53884
X36322Y56737
X39497Y56769
X54038Y46037
X52832Y43307
X47307Y42736
X45641Y68072
X45641Y67120
X45641Y64833
X50038Y66548
X52705Y65723
X51435Y69850
X48704Y71374
X48038Y74581
X47969Y79693
X52107Y79693
X45641Y56642
X50228Y50165
X53276Y50546
X49896Y68453
X53403Y49276
X45974Y76708
X45641Y63373
X50355Y64770
X53403Y64008
X53435Y60769
X45673Y51848
X45959Y45402
X45895Y43878
X48499Y47498
X52309Y47498
X47879Y49466
X49769Y46228
X53276Y76518
X54800Y81217
X45339Y80264
X54150Y43371
X50228Y44894
X50673Y53340
X51943Y53276
X46721Y50927
X47911Y73406
X52800Y56515
X46943Y62897
X47038Y61690
X47832Y58706
X53435Y59436
X52133Y72835
X53435Y72549
X51943Y63722
X52288Y42736
X51816Y43244
X51308Y42736
X50800Y43244
X50308Y42736
X49847Y43688
X49308Y42736
X48768Y43307
X48308Y42736
X47117Y76291
X46958Y60815
X46602Y53884
X49816Y53880
X52768Y71628
X51418Y68787
X47752Y43307
X47117Y77026
X46355Y58977
X46213Y53213
X50800Y68263
X53171Y68559
X53282Y42730
X46545Y43307
X48223Y78994
X51789Y78994
X49784Y64008
X51054Y64008
X50990Y47498
X50990Y46228
X45210Y72454
X45210Y71755
X45910Y42799
X45434Y43275
X54229Y42545
X52006Y74168
X48831Y50101
X53435Y58420
X48323Y70803
X47625Y71692
X51689Y51554
X50990Y50165
X51879Y62198
X52038Y56388
X46941Y59944
X47283Y53884
X47498Y56737
X50673Y56769
X65214Y46037
X64008Y43307
X58483Y42736
X56817Y68072
X56817Y67120
X56817Y64833
X61214Y66548
X63881Y65723
X62611Y69850
X59880Y71374
X59214Y74581
X59145Y79693
X63283Y79693
X56817Y56642
X61404Y50165
X64452Y50546
X61072Y68453
X64579Y49276
X57150Y76708
X56817Y63373
X61531Y64770
X64579Y64008
X64611Y60769
X56849Y51848
X57135Y45402
X57071Y43878
X59675Y47498
X63485Y47498
X59055Y49466
X60945Y46228
X64452Y76518
X65977Y81217
X56515Y80264
X65326Y43371
X61404Y44894
X61849Y53340
X63119Y53276
X57897Y50927
X59087Y73406
X63976Y56515
X58119Y62897
X58214Y61690
X59008Y58706
X64611Y59436
X63309Y72835
X64611Y72549
X63119Y63722
X63464Y42736
X62992Y43244
X62484Y42736
X61976Y43244
X61484Y42736
X61023Y43688
X60484Y42736
X59944Y43307
X59484Y42736
X58293Y76291
X58134Y60815
X57778Y53884
X60992Y53880
X63944Y71628
X62594Y68787
X58928Y43307
X58293Y77026
X57531Y58977
X57389Y53213
X61976Y68263
X64347Y68559
X64458Y42730
X57721Y43307
X59399Y78994
X62965Y78994
X60960Y64008
X62230Y64008
X62166Y47498
X62166Y46228
X56386Y72454
X56386Y71755
X57086Y42799
X56610Y43275
X65405Y42545
X63182Y74168
X60007Y50101
X64611Y58420
X59499Y70803
X58801Y71692
X62865Y51554
X62166Y50165
X63055Y62198
X63214Y56388
X58117Y59944
X58459Y53884
X58674Y56737
X61849Y56769
X76391Y46037
X75184Y43307
X69660Y42736
X67993Y68072
X67993Y67120
X67993Y64833
X72390Y66548
X75057Y65723
X73787Y69850
X71057Y71374
X70390Y74581
X70321Y79693
X74459Y79693
X67993Y56642
X72581Y50165
X75629Y50546
X72248Y68453
X75756Y49276
X68326Y76708
X67993Y63373
X72708Y64770
X75756Y64008
X75787Y60769
X68025Y51848
X68311Y45402
X68247Y43878
X70851Y47498
X74661Y47498
X70231Y49466
X72121Y46228
X75629Y76518
X77153Y81217
X67691Y80264
X76502Y43371
X72581Y44894
X73025Y53340
X74295Y53276
X69073Y50927
X70263Y73406
X75152Y56515
X69295Y62897
X69390Y61690
X70184Y58706
X75787Y59436
X74486Y72835
X75787Y72549
X74295Y63722
X74640Y42736
X74168Y43244
X73660Y42736
X73152Y43244
X72660Y42736
X72200Y43688
X71660Y42736
X71120Y43307
X70660Y42736
X69469Y76291
X69310Y60815
X68954Y53884
X72168Y53880
X75121Y71628
X73770Y68787
X70104Y43307
X69469Y77026
X68707Y58977
X68565Y53213
X73152Y68263
X75523Y68559
X75634Y42730
X68898Y43307
X70575Y78994
X74142Y78994
X72136Y64008
X73406Y64008
X73343Y47498
X73343Y46228
X67562Y72454
X67562Y71755
X68263Y42799
X67786Y43275
X76581Y42545
X74359Y74168
X71184Y50101
X75787Y58420
X70676Y70803
X69977Y71692
X74041Y51554
X73343Y50165
X74232Y62198
X74390Y56388
X69294Y59944
X69635Y53884
X69850Y56737
X73025Y56769
X87566Y46037
X86360Y43307
X80836Y42736
X79169Y68072
X79169Y67120
X79169Y64833
X83566Y66548
X86233Y65723
X84963Y69850
X82233Y71374
X81566Y74581
X81497Y79693
X85635Y79693
X79169Y56642
X83757Y50165
X86805Y50546
X83424Y68453
X86932Y49276
X79502Y76708
X79169Y63373
X83884Y64770
X86932Y64008
X86963Y60769
X79201Y51848
X79487Y45402
X79423Y43878
X82027Y47498
X85837Y47498
X81407Y49466
X83297Y46228
X86805Y76518
X88328Y81217
X78867Y80264
X87678Y43371
X83757Y44894
X84201Y53340
X85471Y53276
X80249Y50927
X81439Y73406
X86328Y56515
X80471Y62897
X80566Y61690
X81360Y58706
X86963Y59436
X85662Y72835
X86963Y72549
X85471Y63722
X85816Y42736
X85344Y43244
X84836Y42736
X84328Y43244
X83836Y42736
X83376Y43688
X82836Y42736
X82296Y43307
X81836Y42736
X80645Y76291
X80486Y60815
X80130Y53884
X83344Y53880
X86297Y71628
X84946Y68787
X81280Y43307
X80645Y77026
X79883Y58977
X79741Y53213
X84328Y68263
X86699Y68559
X86810Y42730
X80074Y43307
X81751Y78994
X85318Y78994
X83312Y64008
X84582Y64008
X84519Y47498
X84519Y46228
X78738Y72454
X78738Y71755
X79439Y42799
X78962Y43275
X87757Y42545
X85535Y74168
X82360Y50101
X86963Y58420
X81852Y70803
X81153Y71692
X85217Y51554
X84519Y50165
X85408Y62198
X85566Y56388
X80470Y59944
X80811Y53884
X81026Y56737
X84201Y56769
X98742Y46037
X97536Y43307
X92011Y42736
X90345Y68072
X90345Y67120
X90345Y64833
X94742Y66548
X97409Y65723
X96139Y69850
X93408Y71374
X92742Y74581
X92673Y79693
X96811Y79693
X90345Y56642
X94932Y50165
X97980Y50546
X94600Y68453
X98107Y49276
X90678Y76708
X90345Y63373
X95059Y64770
X98107Y64008
X98139Y60769
X90377Y51848
X90663Y45402
X90599Y43878
X93203Y47498
X97013Y47498
X92583Y49466
X94473Y46228
X97980Y76518
X99504Y81217
X90043Y80264
X98854Y43371
X94932Y44894
X95377Y53340
X96647Y53276
X91425Y50927
X92615Y73406
X97504Y56515
X91647Y62897
X91742Y61690
X92536Y58706
X98139Y59436
X96837Y72835
X98139Y72549
X96647Y63722
X96992Y42736
X96520Y43244
X96012Y42736
X95504Y43244
X95012Y42736
X94551Y43688
X94012Y42736
X93472Y43307
X93012Y42736
X91821Y76291
X91662Y60815
X91306Y53884
X94520Y53880
X97472Y71628
X96122Y68787
X92456Y43307
X91821Y77026
X91059Y58977
X90917Y53213
X95504Y68263
X97875Y68559
X97986Y42730
X91249Y43307
X92927Y78994
X96493Y78994
X94488Y64008
X95758Y64008
X95694Y47498
X95694Y46228
X89914Y72454
X89914Y71755
X90614Y42799
X90138Y43275
X98933Y42545
X96710Y74168
X93535Y50101
X98139Y58420
X93027Y70803
X92329Y71692
X96393Y51554
X95694Y50165
X96583Y62198
X96742Y56388
X91645Y59944
X91987Y53884
X92202Y56737
X95377Y56769
X109918Y46037
X108712Y43307
X103187Y42736
X101521Y68072
X101521Y67120
X101521Y64833
X105918Y66548
X108585Y65723
X107315Y69850
X104584Y71374
X103918Y74581
X103849Y79693
X107987Y79693
X101521Y56642
X106108Y50165
X109156Y50546
X105776Y68453
X109283Y49276
X101854Y76708
X101521Y63373
X106235Y64770
X109283Y64008
X109315Y60769
X101553Y51848
X101839Y45402
X101775Y43878
X104379Y47498
X108189Y47498
X103759Y49466
X105649Y46228
X109156Y76518
X110680Y81217
X101219Y80264
X110030Y43371
X106108Y44894
X106553Y53340
X107823Y53276
X102601Y50927
X103791Y73406
X108680Y56515
X102823Y62897
X102918Y61690
X103712Y58706
X109315Y59436
X108013Y72835
X109315Y72549
X107823Y63722
X108168Y42736
X107696Y43244
X107188Y42736
X106680Y43244
X106188Y42736
X105727Y43688
X105188Y42736
X104648Y43307
X104188Y42736
X102997Y76291
X102838Y60815
X102482Y53884
X105696Y53880
X108648Y71628
X107298Y68787
X103632Y43307
X102997Y77026
X102235Y58977
X102093Y53213
X106680Y68263
X109051Y68559
X109162Y42730
X102425Y43307
X104103Y78994
X107669Y78994
X105664Y64008
X106934Y64008
X106870Y47498
X106870Y46228
X101090Y72454
X101090Y71755
X101790Y42799
X101314Y43275
X110109Y42545
X107886Y74168
X104711Y50101
X109315Y58420
X104203Y70803
X103505Y71692
X107569Y51554
X106870Y50165
X107759Y62198
X107918Y56388
X102821Y59944
X103163Y53884
X103378Y56737
X106553Y56769
X121094Y46037
X119888Y43307
X114363Y42736
X112697Y68072
X112697Y67120
X112697Y64833
X117094Y66548
X119761Y65723
X118491Y69850
X115760Y71374
X115094Y74581
X115025Y79693
X119163Y79693
X112697Y56642
X117284Y50165
X120332Y50546
X116952Y68453
X120459Y49276
X113030Y76708
X112697Y63373
X117411Y64770
X120459Y64008
X120491Y60769
X112729Y51848
X113015Y45402
X112951Y43878
X115555Y47498
X119365Y47498
X114935Y49466
X116825Y46228
X120332Y76518
X121856Y81217
X112395Y80264
X121206Y43371
X117284Y44894
X117729Y53340
X118999Y53276
X113777Y50927
X114967Y73406
X119856Y56515
X113999Y62897
X114094Y61690
X114888Y58706
X120491Y59436
X119189Y72835
X120491Y72549
X118999Y63722
X119344Y42736
X118872Y43244
X118364Y42736
X117856Y43244
X117364Y42736
X116903Y43688
X116364Y42736
X115824Y43307
X115364Y42736
X114173Y76291
X114014Y60815
X113658Y53884
X116872Y53880
X119824Y71628
X118474Y68787
X114808Y43307
X114173Y77026
X113411Y58977
X113269Y53213
X117856Y68263
X120227Y68559
X120338Y42730
X113601Y43307
X115279Y78994
X118845Y78994
X116840Y64008
X118110Y64008
X118046Y47498
X118046Y46228
X112266Y72454
X112266Y71755
X112966Y42799
X112490Y43275
X121285Y42545
X119062Y74168
X115887Y50101
X120491Y58420
X115379Y70803
X114681Y71692
X118745Y51554
X118046Y50165
X118935Y62198
X119094Y56388
X113997Y59944
X114339Y53884
X114554Y56737
X117729Y56769
X132271Y46037
X131064Y43307
X125539Y42736
X123873Y68072
X123873Y67120
X123873Y64833
X128270Y66548
X130937Y65723
X129667Y69850
X126936Y71374
X126270Y74581
X126201Y79693
X130339Y79693
X123873Y56642
X128460Y50165
X131509Y50546
X128128Y68453
X131636Y49276
X124206Y76708
X123873Y63373
X128587Y64770
X131636Y64008
X131667Y60769
X123905Y51848
X124191Y45402
X124127Y43878
X126731Y47498
X130541Y47498
X126111Y49466
X128001Y46228
X131509Y76518
X133033Y81217
X123571Y80264
X132382Y43371
X128460Y44894
X128905Y53340
X130175Y53276
X124953Y50927
X126143Y73406
X131032Y56515
X125175Y62897
X125270Y61690
X126064Y58706
X131667Y59436
X130365Y72835
X131667Y72549
X130175Y63722
X130520Y42736
X130048Y43244
X129540Y42736
X129032Y43244
X128540Y42736
X128079Y43688
X127540Y42736
X127000Y43307
X126540Y42736
X125349Y76291
X125190Y60815
X124834Y53884
X128048Y53880
X131000Y71628
X129650Y68787
X125984Y43307
X125349Y77026
X124587Y58977
X124445Y53213
X129032Y68263
X131403Y68559
X131514Y42730
X124777Y43307
X126455Y78994
X130021Y78994
X128016Y64008
X129286Y64008
X129222Y47498
X129222Y46228
X123442Y72454
X123442Y71755
X124142Y42799
X123666Y43275
X132461Y42545
X130238Y74168
X127063Y50101
X131667Y58420
X126555Y70803
X125857Y71692
X129921Y51554
X129222Y50165
X130111Y62198
X130270Y56388
X125173Y59944
X125515Y53884
X125730Y56737
X128905Y56769
X143447Y46037
X142240Y43307
X136716Y42736
X135049Y68072
X135049Y67120
X135049Y64833
X139446Y66548
X142113Y65723
X140843Y69850
X138113Y71374
X137446Y74581
X137377Y79693
X141515Y79693
X135049Y56642
X139637Y50165
X142685Y50546
X139304Y68453
X142812Y49276
X135382Y76708
X135049Y63373
X139764Y64770
X142812Y64008
X142843Y60769
X135081Y51848
X135367Y45402
X135303Y43878
X137907Y47498
X141717Y47498
X137287Y49466
X139177Y46228
X142685Y76518
X144209Y81217
X134747Y80264
X143558Y43371
X139637Y44894
X140081Y53340
X141351Y53276
X136129Y50927
X137319Y73406
X142208Y56515
X136351Y62897
X136446Y61690
X137240Y58706
X142843Y59436
X141542Y72835
X142843Y72549
X141351Y63722
X141696Y42736
X141224Y43244
X140716Y42736
X140208Y43244
X139716Y42736
X139256Y43688
X138716Y42736
X138176Y43307
X137716Y42736
X136525Y76291
X136366Y60815
X136010Y53884
X139224Y53880
X142177Y71628
X140826Y68787
X137160Y43307
X136525Y77026
X135763Y58977
X135621Y53213
X140208Y68263
X142579Y68559
X142690Y42730
X135954Y43307
X137631Y78994
X141198Y78994
X139192Y64008
X140462Y64008
X140399Y47498
X140399Y46228
X134618Y72454
X134618Y71755
X135319Y42799
X134842Y43275
X143637Y42545
X141415Y74168
X138240Y50101
X142843Y58420
X137732Y70803
X137033Y71692
X141097Y51554
X140399Y50165
X141288Y62198
X141446Y56388
X136350Y59944
X136691Y53884
X136906Y56737
X140081Y56769
X154623Y46037
X153416Y43307
X147892Y42736
X146225Y68072
X146225Y67120
X146225Y64833
X150622Y66548
X153289Y65723
X152019Y69850
X149289Y71374
X148622Y74581
X148553Y79693
X152691Y79693
X146225Y56642
X150813Y50165
X153861Y50546
X150480Y68453
X153988Y49276
X146558Y76708
X146225Y63373
X150940Y64770
X153988Y64008
X154019Y60769
X146257Y51848
X146543Y45402
X146479Y43878
X149083Y47498
X152893Y47498
X148463Y49466
X150353Y46228
X153861Y76518
X155385Y81217
X145923Y80264
X154734Y43371
X150813Y44894
X151257Y53340
X152527Y53276
X147305Y50927
X148495Y73406
X153384Y56515
X147527Y62897
X147622Y61690
X148416Y58706
X154019Y59436
X152718Y72835
X154019Y72549
X152527Y63722
X152872Y42736
X152400Y43244
X151892Y42736
X151384Y43244
X150892Y42736
X150432Y43688
X149892Y42736
X149352Y43307
X148892Y42736
X147701Y76291
X147542Y60815
X147186Y53884
X150400Y53880
X153353Y71628
X152002Y68787
X148336Y43307
X147701Y77026
X146939Y58977
X146797Y53213
X151384Y68263
X153755Y68559
X153866Y42730
X147130Y43307
X148807Y78994
X152374Y78994
X150368Y64008
X151638Y64008
X151575Y47498
X151575Y46228
X145794Y72454
X145794Y71755
X146495Y42799
X146018Y43275
X154813Y42545
X152591Y74168
X149416Y50101
X154019Y58420
X148908Y70803
X148209Y71692
X152273Y51554
X151575Y50165
X152464Y62198
X152622Y56388
X147526Y59944
X147867Y53884
X148082Y56737
X151257Y56769
X165799Y46037
X164592Y43307
X159068Y42736
X157401Y68072
X157401Y67120
X157401Y64833
X161798Y66548
X164465Y65723
X163195Y69850
X160465Y71374
X159798Y74581
X159729Y79693
X163867Y79693
X157401Y56642
X161989Y50165
X165037Y50546
X161656Y68453
X165164Y49276
X157734Y76708
X157401Y63373
X162116Y64770
X165164Y64008
X165195Y60769
X157433Y51848
X157719Y45402
X157655Y43878
X160259Y47498
X164069Y47498
X159639Y49466
X161529Y46228
X165037Y76518
X166561Y81217
X157099Y80264
X165910Y43371
X161989Y44894
X162433Y53340
X163703Y53276
X158481Y50927
X159671Y73406
X164560Y56515
X158703Y62897
X158798Y61690
X159592Y58706
X165195Y59436
X163894Y72835
X165195Y72549
X163703Y63722
X164048Y42736
X163576Y43244
X163068Y42736
X162560Y43244
X162068Y42736
X161608Y43688
X161068Y42736
X160528Y43307
X160068Y42736
X158877Y76291
X158718Y60815
X158362Y53884
X161576Y53880
X164529Y71628
X163178Y68787
X159512Y43307
X158877Y77026
X158115Y58977
X157973Y53213
X162560Y68263
X164931Y68559
X165042Y42730
X158306Y43307
X159983Y78994
X163550Y78994
X161544Y64008
X162814Y64008
X162751Y47498
X162751Y46228
X156970Y72454
X156970Y71755
X157671Y42799
X157194Y43275
X165989Y42545
X163767Y74168
X160592Y50101
X165195Y58420
X160084Y70803
X159385Y71692
X163449Y51554
X162751Y50165
X163640Y62198
X163798Y56388
X158702Y59944
X159043Y53884
X159258Y56737
X162433Y56769
X176974Y46037
X175768Y43307
X170244Y42736
X168577Y68072
X168577Y67120
X168577Y64833
X172974Y66548
X175641Y65723
X174371Y69850
X171641Y71374
X170974Y74581
X170905Y79693
X175043Y79693
X168577Y56642
X173165Y50165
X176212Y50546
X172832Y68453
X176339Y49276
X168910Y76708
X168577Y63373
X173292Y64770
X176339Y64008
X176371Y60769
X168609Y51848
X168895Y45402
X168831Y43878
X171435Y47498
X175245Y47498
X170815Y49466
X172705Y46228
X176212Y76518
X177736Y81217
X168275Y80264
X177086Y43371
X173165Y44894
X173609Y53340
X174879Y53276
X169657Y50927
X170847Y73406
X175736Y56515
X169879Y62897
X169974Y61690
X170768Y58706
X176371Y59436
X175069Y72835
X176371Y72549
X174879Y63722
X175224Y42736
X174752Y43244
X174244Y42736
X173736Y43244
X173244Y42736
X172784Y43688
X172244Y42736
X171704Y43307
X171244Y42736
X170053Y76291
X169894Y60815
X169538Y53884
X172752Y53880
X175704Y71628
X174354Y68787
X170688Y43307
X170053Y77026
X169291Y58977
X169149Y53213
X173736Y68263
X176107Y68559
X176218Y42730
X169482Y43307
X171159Y78994
X174726Y78994
X172720Y64008
X173990Y64008
X173927Y47498
X173927Y46228
X168146Y72454
X168146Y71755
X168847Y42799
X168370Y43275
X177165Y42545
X174942Y74168
X171768Y50101
X176371Y58420
X171260Y70803
X170561Y71692
X174625Y51554
X173927Y50165
X174815Y62198
X174974Y56388
X169878Y59944
X170219Y53884
X170434Y56737
X173609Y56769
X9335Y87186
X8128Y84455
X2604Y83884
X937Y109220
X937Y108267
X937Y105981
X5334Y107696
X8001Y106870
X6731Y110998
X4000Y112522
X3334Y115729
X3265Y120840
X7403Y120840
X937Y97790
X5524Y91313
X8573Y91694
X5192Y109601
X8700Y90424
X1270Y117856
X937Y104521
X5651Y105918
X8700Y105156
X8731Y101917
X969Y92996
X1255Y86551
X1191Y85027
X3795Y88646
X7605Y88646
X3175Y90614
X5065Y87376
X8573Y117665
X10097Y122364
X635Y121412
X9446Y84519
X5524Y86043
X5969Y94488
X7239Y94424
X2017Y92075
X3207Y114554
X8096Y97663
X2239Y104045
X2334Y102838
X3128Y99854
X8731Y100584
X7429Y113982
X8731Y113697
X7239Y104870
X7584Y83884
X7112Y84392
X6604Y83884
X6096Y84392
X5604Y83884
X5144Y84836
X4604Y83884
X4064Y84455
X3604Y83884
X2413Y117439
X2254Y101963
X1898Y95032
X5112Y95028
X8064Y112776
X6714Y109935
X3048Y84455
X2413Y118173
X1651Y100125
X1509Y94361
X6096Y109410
X8467Y109707
X8578Y83878
X1841Y84455
X3519Y120142
X7085Y120142
X5080Y105156
X6350Y105156
X6286Y88646
X6286Y87376
X506Y113601
X506Y112903
X1207Y83947
X730Y84423
X9525Y83693
X7302Y115316
X4128Y91249
X8731Y99568
X3619Y111950
X2921Y112839
X6985Y92702
X6286Y91313
X7175Y103346
X7334Y97536
X2238Y101092
X2579Y95032
X2794Y97885
X5969Y97917
X20511Y87186
X19304Y84455
X13779Y83884
X12113Y109220
X12113Y108267
X12113Y105981
X16510Y107696
X19177Y106870
X17907Y110998
X15176Y112522
X14510Y115729
X14441Y120840
X18579Y120840
X12113Y97790
X16701Y91313
X19749Y91694
X16368Y109601
X19876Y90424
X12446Y117856
X12113Y104521
X16828Y105918
X19876Y105156
X19907Y101917
X12145Y92996
X12431Y86551
X12367Y85027
X14971Y88646
X18781Y88646
X14351Y90614
X16241Y87376
X19749Y117665
X21273Y122364
X11811Y121412
X20622Y84519
X16701Y86043
X17145Y94488
X18415Y94424
X13193Y92075
X14383Y114554
X19272Y97663
X13415Y104045
X13510Y102838
X14304Y99854
X19907Y100584
X18606Y113982
X19907Y113697
X18415Y104870
X18760Y83884
X18288Y84392
X17780Y83884
X17272Y84392
X16780Y83884
X16319Y84836
X15780Y83884
X15240Y84455
X14780Y83884
X13589Y117439
X13430Y101963
X13074Y95032
X16288Y95028
X19241Y112776
X17890Y109935
X14224Y84455
X13589Y118173
X12827Y100125
X12685Y94361
X17272Y109410
X19643Y109707
X19754Y83878
X13017Y84455
X14695Y120142
X18262Y120142
X16256Y105156
X17526Y105156
X17463Y88646
X17463Y87376
X11682Y113601
X11682Y112903
X12382Y83947
X11906Y84423
X20701Y83693
X18479Y115316
X15303Y91249
X19907Y99568
X14795Y111950
X14097Y112839
X18161Y92702
X17463Y91313
X18352Y103346
X18510Y97536
X13413Y101092
X13755Y95032
X13970Y97885
X17145Y97917
X31686Y87186
X30480Y84455
X24955Y83884
X23289Y109220
X23289Y108267
X23289Y105981
X27686Y107696
X30353Y106870
X29083Y110998
X26352Y112522
X25686Y115729
X25617Y120840
X29755Y120840
X23289Y97790
X27876Y91313
X30924Y91694
X27544Y109601
X31051Y90424
X23622Y117856
X23289Y104521
X28003Y105918
X31051Y105156
X31083Y101917
X23321Y92996
X23607Y86551
X23543Y85027
X26147Y88646
X29957Y88646
X25527Y90614
X27417Y87376
X30924Y117665
X32448Y122364
X22987Y121412
X31798Y84519
X27876Y86043
X28321Y94488
X29591Y94424
X24369Y92075
X25559Y114554
X30448Y97663
X24591Y104045
X24686Y102838
X25480Y99854
X31083Y100584
X29781Y113982
X31083Y113697
X29591Y104870
X29936Y83884
X29464Y84392
X28956Y83884
X28448Y84392
X27956Y83884
X27495Y84836
X26956Y83884
X26416Y84455
X25956Y83884
X24765Y117439
X24606Y101963
X24250Y95032
X27464Y95028
X30416Y112776
X29066Y109935
X25400Y84455
X24765Y118173
X24003Y100125
X23861Y94361
X28448Y109410
X30819Y109707
X30930Y83878
X24193Y84455
X25871Y120142
X29437Y120142
X27432Y105156
X28702Y105156
X28638Y88646
X28638Y87376
X22858Y113601
X22858Y112903
X23558Y83947
X23082Y84423
X31877Y83693
X29654Y115316
X26479Y91249
X31083Y99568
X25971Y111950
X25273Y112839
X29337Y92702
X28638Y91313
X29527Y103346
X29686Y97536
X24589Y101092
X24931Y95032
X25146Y97885
X28321Y97917
X42863Y87186
X41656Y84455
X36132Y83884
X34465Y109220
X34465Y108267
X34465Y105981
X38862Y107696
X41529Y106870
X40259Y110998
X37529Y112522
X36862Y115729
X36793Y120840
X40931Y120840
X34465Y97790
X39053Y91313
X42101Y91694
X38720Y109601
X42228Y90424
X34798Y117856
X34465Y104521
X39180Y105918
X42228Y105156
X42259Y101917
X34497Y92996
X34783Y86551
X34719Y85027
X37323Y88646
X41133Y88646
X36703Y90614
X38593Y87376
X42101Y117665
X43625Y122364
X34163Y121412
X42974Y84519
X39053Y86043
X39497Y94488
X40767Y94424
X35545Y92075
X36735Y114554
X41624Y97663
X35767Y104045
X35862Y102838
X36656Y99854
X42259Y100584
X40958Y113982
X42259Y113697
X40767Y104870
X41112Y83884
X40640Y84392
X40132Y83884
X39624Y84392
X39132Y83884
X38672Y84836
X38132Y83884
X37592Y84455
X37132Y83884
X35941Y117439
X35782Y101963
X35426Y95032
X38640Y95028
X41593Y112776
X40242Y109935
X36576Y84455
X35941Y118173
X35179Y100125
X35037Y94361
X39624Y109410
X41995Y109707
X42106Y83878
X35370Y84455
X37047Y120142
X40614Y120142
X38608Y105156
X39878Y105156
X39815Y88646
X39815Y87376
X34034Y113601
X34034Y112903
X34735Y83947
X34258Y84423
X43053Y83693
X40831Y115316
X37656Y91249
X42259Y99568
X37148Y111950
X36449Y112839
X40513Y92702
X39815Y91313
X40704Y103346
X40862Y97536
X35766Y101092
X36107Y95032
X36322Y97885
X39497Y97917
X54038Y87186
X52832Y84455
X47307Y83884
X45641Y109220
X45641Y108267
X45641Y105981
X50038Y107696
X52705Y106870
X51435Y110998
X48704Y112522
X48038Y115729
X47969Y120840
X52107Y120840
X45641Y97790
X50228Y91313
X53276Y91694
X49896Y109601
X53403Y90424
X45974Y117856
X45641Y104521
X50355Y105918
X53403Y105156
X53435Y101917
X45673Y92996
X45959Y86551
X45895Y85027
X48499Y88646
X52309Y88646
X47879Y90614
X49769Y87376
X53276Y117665
X54800Y122364
X45339Y121412
X54150Y84519
X50228Y86043
X50673Y94488
X51943Y94424
X46721Y92075
X47911Y114554
X52800Y97663
X46943Y104045
X47038Y102838
X47832Y99854
X53435Y100584
X52133Y113982
X53435Y113697
X51943Y104870
X52288Y83884
X51816Y84392
X51308Y83884
X50800Y84392
X50308Y83884
X49847Y84836
X49308Y83884
X48768Y84455
X48308Y83884
X47117Y117439
X46958Y101963
X46602Y95032
X49816Y95028
X52768Y112776
X51418Y109935
X47752Y84455
X47117Y118173
X46355Y100125
X46213Y94361
X50800Y109410
X53171Y109707
X53282Y83878
X46545Y84455
X48223Y120142
X51789Y120142
X49784Y105156
X51054Y105156
X50990Y88646
X50990Y87376
X45210Y113601
X45210Y112903
X45910Y83947
X45434Y84423
X54229Y83693
X52006Y115316
X48831Y91249
X53435Y99568
X48323Y111950
X47625Y112839
X51689Y92702
X50990Y91313
X51879Y103346
X52038Y97536
X46941Y101092
X47283Y95032
X47498Y97885
X50673Y97917
X65214Y87186
X64008Y84455
X58483Y83884
X56817Y109220
X56817Y108267
X56817Y105981
X61214Y107696
X63881Y106870
X62611Y110998
X59880Y112522
X59214Y115729
X59145Y120840
X63283Y120840
X56817Y97790
X61404Y91313
X64452Y91694
X61072Y109601
X64579Y90424
X57150Y117856
X56817Y104521
X61531Y105918
X64579Y105156
X64611Y101917
X56849Y92996
X57135Y86551
X57071Y85027
X59675Y88646
X63485Y88646
X59055Y90614
X60945Y87376
X64452Y117665
X65977Y122364
X56515Y121412
X65326Y84519
X61404Y86043
X61849Y94488
X63119Y94424
X57897Y92075
X59087Y114554
X63976Y97663
X58119Y104045
X58214Y102838
X59008Y99854
X64611Y100584
X63309Y113982
X64611Y113697
X63119Y104870
X63464Y83884
X62992Y84392
X62484Y83884
X61976Y84392
X61484Y83884
X61023Y84836
X60484Y83884
X59944Y84455
X59484Y83884
X58293Y117439
X58134Y101963
X57778Y95032
X60992Y95028
X63944Y112776
X62594Y109935
X58928Y84455
X58293Y118173
X57531Y100125
X57389Y94361
X61976Y109410
X64347Y109707
X64458Y83878
X57721Y84455
X59399Y120142
X62965Y120142
X60960Y105156
X62230Y105156
X62166Y88646
X62166Y87376
X56386Y113601
X56386Y112903
X57086Y83947
X56610Y84423
X65405Y83693
X63182Y115316
X60007Y91249
X64611Y99568
X59499Y111950
X58801Y112839
X62865Y92702
X62166Y91313
X63055Y103346
X63214Y97536
X58117Y101092
X58459Y95032
X58674Y97885
X61849Y97917
X76391Y87186
X75184Y84455
X69660Y83884
X67993Y109220
X67993Y108267
X67993Y105981
X72390Y107696
X75057Y106870
X73787Y110998
X71057Y112522
X70390Y115729
X70321Y120840
X74459Y120840
X67993Y97790
X72581Y91313
X75629Y91694
X72248Y109601
X75756Y90424
X68326Y117856
X67993Y104521
X72708Y105918
X75756Y105156
X75787Y101917
X68025Y92996
X68311Y86551
X68247Y85027
X70851Y88646
X9335Y4890
X70231Y90614
X72121Y87376
X75629Y117665
X77153Y122364
X67691Y121412
X76502Y84519
X72581Y86043
X73025Y94488
X74295Y94424
X69073Y92075
X70263Y114554
X75152Y97663
X69295Y104045
X69390Y102838
X70184Y99854
X75787Y100584
X74486Y113982
X75787Y113697
X74295Y104870
X74640Y83884
X74168Y84392
X73660Y83884
X73152Y84392
X72660Y83884
X72200Y84836
X71660Y83884
X71120Y84455
X70660Y83884
X69469Y117439
X69310Y101963
X68954Y95032
X72168Y95028
X75121Y112776
X73770Y109935
X70104Y84455
X69469Y118173
X68707Y100125
X68565Y94361
X73152Y109410
X75523Y109707
X75634Y83878
X68898Y84455
X70575Y120142
X74142Y120142
X72136Y105156
X73406Y105156
X73343Y88646
X73343Y87376
X67562Y113601
X67562Y112903
X68263Y83947
X67786Y84423
X76581Y83693
X74359Y115316
X71184Y91249
X75787Y99568
X70676Y111950
X69977Y112839
X74041Y92702
X73343Y91313
X74232Y103346
X74390Y97536
X69294Y101092
X69635Y95032
X69850Y97885
X73025Y97917
X87566Y87186
X86360Y84455
X80836Y83884
X79169Y109220
X79169Y108267
X79169Y105981
X83566Y107696
X86233Y106870
X84963Y110998
X82233Y112522
X81566Y115729
X81497Y120840
X85635Y120840
X79169Y97790
X83757Y91313
X86805Y91694
X83424Y109601
X86932Y90424
X79502Y117856
X79169Y104521
X83884Y105918
X86932Y105156
X86963Y101917
X79201Y92996
X79487Y86551
X79423Y85027
X82027Y88646
X85837Y88646
X81407Y90614
X83297Y87376
X86805Y117665
X88328Y122364
X78867Y121412
X87678Y84519
X83757Y86043
X84201Y94488
X85471Y94424
X80249Y92075
X81439Y114554
X86328Y97663
X80471Y104045
X80566Y102838
X81360Y99854
X86963Y100584
X85662Y113982
X86963Y113697
X85471Y104870
X85816Y83884
X85344Y84392
X84836Y83884
X84328Y84392
X83836Y83884
X83376Y84836
X82836Y83884
X82296Y84455
X81836Y83884
X80645Y117439
X80486Y101963
X80130Y95032
X83344Y95028
X86297Y112776
X84946Y109935
X81280Y84455
X80645Y118173
X79883Y100125
X79741Y94361
X84328Y109410
X86699Y109707
X86810Y83878
X80074Y84455
X81751Y120142
X85318Y120142
X83312Y105156
X84582Y105156
X84519Y88646
X84519Y87376
X78738Y113601
X78738Y112903
X79439Y83947
X78962Y84423
X87757Y83693
X85535Y115316
X82360Y91249
X86963Y99568
X81852Y111950
X81153Y112839
X85217Y92702
X84519Y91313
X85408Y103346
X85566Y97536
X80470Y101092
X80811Y95032
X81026Y97885
X84201Y97917
X98742Y87186
X97536Y84455
X92011Y83884
X90345Y109220
X90345Y108267
X90345Y105981
X94742Y107696
X97409Y106870
X96139Y110998
X93408Y112522
X92742Y115729
X92673Y120840
X96811Y120840
X90345Y97790
X94932Y91313
X97980Y91694
X94600Y109601
X98107Y90424
X90678Y117856
X90345Y104521
X95059Y105918
X98107Y105156
X98139Y101917
X90377Y92996
X90663Y86551
X90599Y85027
X93203Y88646
X97013Y88646
X92583Y90614
X94473Y87376
X97980Y117665
X99504Y122364
X90043Y121412
X98854Y84519
X94932Y86043
X95377Y94488
X96647Y94424
X91425Y92075
X92615Y114554
X97504Y97663
X91647Y104045
X91742Y102838
X92536Y99854
X98139Y100584
X96837Y113982
X98139Y113697
X96647Y104870
X96992Y83884
X96520Y84392
X96012Y83884
X95504Y84392
X95012Y83884
X94551Y84836
X94012Y83884
X93472Y84455
X93012Y83884
X91821Y117439
X91662Y101963
X91306Y95032
X94520Y95028
X97472Y112776
X96122Y109935
X92456Y84455
X91821Y118173
X91059Y100125
X90917Y94361
X95504Y109410
X97875Y109707
X97986Y83878
X91249Y84455
X92927Y120142
X96493Y120142
X94488Y105156
X95758Y105156
X95694Y88646
X95694Y87376
X89914Y113601
X89914Y112903
X90614Y83947
X90138Y84423
X98933Y83693
X96710Y115316
X93535Y91249
X98139Y99568
X93027Y111950
X92329Y112839
X96393Y92702
X95694Y91313
X96583Y103346
X96742Y97536
X91645Y101092
X91987Y95032
X92202Y97885
X95377Y97917
X109918Y87186
X108712Y84455
X103187Y83884
X101521Y109220
X101521Y108267
X101521Y105981
X105918Y107696
X108585Y106870
X107315Y110998
X104584Y112522
X103918Y115729
X103849Y120840
X107987Y120840
X101521Y97790
X106108Y91313
X109156Y91694
X105776Y109601
X109283Y90424
X101854Y117856
X101521Y104521
X106235Y105918
X109283Y105156
X109315Y101917
X101553Y92996
X101839Y86551
X101775Y85027
X104379Y88646
X108189Y88646
X103759Y90614
X105649Y87376
X109156Y117665
X110680Y122364
X101219Y121412
X110030Y84519
X106108Y86043
X106553Y94488
X107823Y94424
X102601Y92075
X103791Y114554
X108680Y97663
X102823Y104045
X102918Y102838
X103712Y99854
X109315Y100584
X108013Y113982
X109315Y113697
X107823Y104870
X108168Y83884
X107696Y84392
X107188Y83884
X106680Y84392
X106188Y83884
X105727Y84836
X105188Y83884
X104648Y84455
X104188Y83884
X102997Y117439
X102838Y101963
X102482Y95032
X105696Y95028
X108648Y112776
X107298Y109935
X103632Y84455
X102997Y118173
X102235Y100125
X102093Y94361
X106680Y109410
X109051Y109707
X109162Y83878
X102425Y84455
X104103Y120142
X107669Y120142
X105664Y105156
X106934Y105156
X106870Y88646
X106870Y87376
X101090Y113601
X101090Y112903
X101790Y83947
X101314Y84423
X110109Y83693
X107886Y115316
X104711Y91249
X109315Y99568
X104203Y111950
X103505Y112839
X107569Y92702
X106870Y91313
X107759Y103346
X107918Y97536
X102821Y101092
X103163Y95032
X103378Y97885
X106553Y97917
X121094Y87186
X119888Y84455
X114363Y83884
X112697Y109220
X112697Y108267
X112697Y105981
X117094Y107696
X119761Y106870
X118491Y110998
X115760Y112522
X115094Y115729
X115025Y120840
X119163Y120840
X112697Y97790
X117284Y91313
X120332Y91694
X116952Y109601
X120459Y90424
X113030Y117856
X112697Y104521
X117411Y105918
X120459Y105156
X120491Y101917
X112729Y92996
X113015Y86551
X112951Y85027
X115555Y88646
X119365Y88646
X114935Y90614
X116825Y87376
X120332Y117665
X121856Y122364
X112395Y121412
X121206Y84519
X117284Y86043
X117729Y94488
X118999Y94424
X113777Y92075
X114967Y114554
X119856Y97663
X113999Y104045
X114094Y102838
X114888Y99854
X120491Y100584
X119189Y113982
X120491Y113697
X118999Y104870
X119344Y83884
X118872Y84392
X118364Y83884
X117856Y84392
X117364Y83884
X116903Y84836
X116364Y83884
X115824Y84455
X115364Y83884
X114173Y117439
X114014Y101963
X113658Y95032
X116872Y95028
X119824Y112776
X118474Y109935
X114808Y84455
X114173Y118173
X113411Y100125
X113269Y94361
X117856Y109410
X120227Y109707
X120338Y83878
X113601Y84455
X115279Y120142
X118845Y120142
X116840Y105156
X118110Y105156
X118046Y88646
X118046Y87376
X112266Y113601
X112266Y112903
X112966Y83947
X112490Y84423
X121285Y83693
X119062Y115316
X115887Y91249
X120491Y99568
X115379Y111950
X114681Y112839
X118745Y92702
X118046Y91313
X118935Y103346
X119094Y97536
X113997Y101092
X114339Y95032
X114554Y97885
X117729Y97917
X132271Y87186
X131064Y84455
X125539Y83884
X123873Y109220
X123873Y108267
X123873Y105981
X128270Y107696
X130937Y106870
X129667Y110998
X126936Y112522
X126270Y115729
X126201Y120840
X130339Y120840
X123873Y97790
X128460Y91313
X131509Y91694
X128128Y109601
X131636Y90424
X124206Y117856
X123873Y104521
X128587Y105918
X131636Y105156
X131667Y101917
X123905Y92996
X124191Y86551
X124127Y85027
X126731Y88646
X130541Y88646
X126111Y90614
X128001Y87376
X131509Y117665
X133033Y122364
X123571Y121412
X132382Y84519
X128460Y86043
X128905Y94488
X130175Y94424
X124953Y92075
X126143Y114554
X131032Y97663
X125175Y104045
X125270Y102838
X126064Y99854
X131667Y100584
X130365Y113982
X131667Y113697
X130175Y104870
X130520Y83884
X130048Y84392
X129540Y83884
X129032Y84392
X128540Y83884
X128079Y84836
X127540Y83884
X127000Y84455
X126540Y83884
X125349Y117439
X125190Y101963
X124834Y95032
X128048Y95028
X131000Y112776
X129650Y109935
X125984Y84455
X125349Y118173
X124587Y100125
X124445Y94361
X129032Y109410
X131403Y109707
X131514Y83878
X124777Y84455
X126455Y120142
X130021Y120142
X128016Y105156
X129286Y105156
X129222Y88646
X129222Y87376
X123442Y113601
X123442Y112903
X124142Y83947
X123666Y84423
X132461Y83693
X130238Y115316
X127063Y91249
X131667Y99568
X126555Y111950
X125857Y112839
X129921Y92702
X129222Y91313
X130111Y103346
X130270Y97536
X125173Y101092
X125515Y95032
X125730Y97885
X128905Y97917
X143447Y87186
X142240Y84455
X136716Y83884
X135049Y109220
X135049Y108267
X135049Y105981
X139446Y107696
X142113Y106870
X140843Y110998
X138113Y112522
X137446Y115729
X137377Y120840
X141515Y120840
X135049Y97790
X139637Y91313
X142685Y91694
X139304Y109601
X142812Y90424
X135382Y117856
X135049Y104521
X139764Y105918
X142812Y105156
X142843Y101917
X135081Y92996
X135367Y86551
X135303Y85027
X137907Y88646
X141717Y88646
X137287Y90614
X139177Y87376
X142685Y117665
X144209Y122364
X134747Y121412
X143558Y84519
X139637Y86043
X140081Y94488
X141351Y94424
X136129Y92075
X137319Y114554
X142208Y97663
X136351Y104045
X136446Y102838
X137240Y99854
X142843Y100584
X141542Y113982
X142843Y113697
X141351Y104870
X141696Y83884
X141224Y84392
X140716Y83884
X140208Y84392
X139716Y83884
X139256Y84836
X138716Y83884
X138176Y84455
X137716Y83884
X136525Y117439
X136366Y101963
X136010Y95032
X139224Y95028
X142177Y112776
X140826Y109935
X137160Y84455
X74661Y88646
X135763Y100125
X135621Y94361
X140208Y109410
X142579Y109707
X142690Y83878
X135954Y84455
X137631Y120142
X141198Y120142
X139192Y105156
X140462Y105156
X140399Y88646
X140399Y87376
X134618Y113601
X134618Y112903
X135319Y83947
X134842Y84423
X143637Y83693
X141415Y115316
X138240Y91249
X142843Y99568
X137732Y111950
X137033Y112839
X141097Y92702
X140399Y91313
X141288Y103346
X141446Y97536
X136350Y101092
X136691Y95032
X136906Y97885
X140081Y97917
X154623Y87186
X153416Y84455
X147892Y83884
X146225Y109220
X146225Y108267
X146225Y105981
X150622Y107696
X153289Y106870
X152019Y110998
X149289Y112522
X148622Y115729
X148553Y120840
X152691Y120840
X146225Y97790
X150813Y91313
X153861Y91694
X150480Y109601
X153988Y90424
X146558Y117856
X146225Y104521
X150940Y105918
X153988Y105156
X154019Y101917
X146257Y92996
X146543Y86551
X146479Y85027
X149083Y88646
X152893Y88646
X148463Y90614
X150353Y87376
X153861Y117665
X155385Y122364
X145923Y121412
X154734Y84519
X150813Y86043
X151257Y94488
X152527Y94424
X147305Y92075
X148495Y114554
X153384Y97663
X147527Y104045
X147622Y102838
X148416Y99854
X154019Y100584
X152718Y113982
X154019Y113697
X152527Y104870
X152872Y83884
X152400Y84392
X151892Y83884
X151384Y84392
X150892Y83884
X150432Y84836
X149892Y83884
X149352Y84455
X148892Y83884
X147701Y117439
X147542Y101963
X147186Y95032
X150400Y95028
X153353Y112776
X152002Y109935
X148336Y84455
X147701Y118173
X146939Y100125
X146797Y94361
X151384Y109410
X153755Y109707
X153866Y83878
X147130Y84455
X148807Y120142
X152374Y120142
X150368Y105156
X151638Y105156
X151575Y88646
X151575Y87376
X145794Y113601
X145794Y112903
X146495Y83947
X146018Y84423
X154813Y83693
X152591Y115316
X149416Y91249
X154019Y99568
X148908Y111950
X148209Y112839
X152273Y92702
X151575Y91313
X152464Y103346
X152622Y97536
X147526Y101092
X147867Y95032
X148082Y97885
X151257Y97917
X165799Y87186
X164592Y84455
X159068Y83884
X157401Y109220
X157401Y108267
X157401Y105981
X161798Y107696
X164465Y106870
X163195Y110998
X160465Y112522
X159798Y115729
X159729Y120840
X163867Y120840
X157401Y97790
X161989Y91313
X165037Y91694
X161656Y109601
X165164Y90424
X157734Y117856
X157401Y104521
X162116Y105918
X165164Y105156
X165195Y101917
X157433Y92996
X157719Y86551
X157655Y85027
X160259Y88646
X164069Y88646
X159639Y90614
X161529Y87376
X165037Y117665
X166561Y122364
X157099Y121412
X165910Y84519
X161989Y86043
X162433Y94488
X163703Y94424
X158481Y92075
X159671Y114554
X164560Y97663
X158703Y104045
X158798Y102838
X159592Y99854
X165195Y100584
X163894Y113982
X165195Y113697
X163703Y104870
X164048Y83884
X163576Y84392
X163068Y83884
X162560Y84392
X162068Y83884
X161608Y84836
X161068Y83884
X160528Y84455
X160068Y83884
X158877Y117439
X158718Y101963
X158362Y95032
X161576Y95028
X164529Y112776
X163178Y109935
X159512Y84455
X158877Y118173
X158115Y100125
X157973Y94361
X162560Y109410
X164931Y109707
X165042Y83878
X158306Y84455
X159983Y120142
X163550Y120142
X161544Y105156
X162814Y105156
X162751Y88646
X162751Y87376
X156970Y113601
X156970Y112903
X157671Y83947
X157194Y84423
X165989Y83693
X163767Y115316
X160592Y91249
X165195Y99568
X160084Y111950
X159385Y112839
X163449Y92702
X162751Y91313
X163640Y103346
X163798Y97536
X158702Y101092
X159043Y95032
X159258Y97885
X162433Y97917
X176974Y87186
X175768Y84455
X170244Y83884
X168577Y109220
X168577Y108267
X168577Y105981
X172974Y107696
X175641Y106870
X174371Y110998
X171641Y112522
X170974Y115729
X170905Y120840
X175043Y120840
X168577Y97790
X173165Y91313
X176212Y91694
X172832Y109601
X176339Y90424
X168910Y117856
X168577Y104521
X173292Y105918
X176339Y105156
X176371Y101917
X168609Y92996
X168895Y86551
X168831Y85027
X171435Y88646
X175245Y88646
X170815Y90614
X172705Y87376
X176212Y117665
X177736Y122364
X168275Y121412
X177086Y84519
X173165Y86043
X173609Y94488
X174879Y94424
X169657Y92075
X170847Y114554
X175736Y97663
X169879Y104045
X169974Y102838
X170768Y99854
X176371Y100584
X175069Y113982
X176371Y113697
X174879Y104870
X175224Y83884
X174752Y84392
X174244Y83884
X173736Y84392
X173244Y83884
X172784Y84836
X172244Y83884
X171704Y84455
X171244Y83884
X170053Y117439
X169894Y101963
X169538Y95032
X172752Y95028
X175704Y112776
X174354Y109935
X170688Y84455
X170053Y118173
X169291Y100125
X169149Y94361
X173736Y109410
X176107Y109707
X176218Y83878
X169482Y84455
X171159Y120142
X174726Y120142
X172720Y105156
X173990Y105156
X173927Y88646
X173927Y87376
X168146Y113601
X168146Y112903
X168847Y83947
X168370Y84423
X177165Y83693
X174942Y115316
X171768Y91249
X176371Y99568
X171260Y111950
X170561Y112839
X174625Y92702
X173927Y91313
X174815Y103346
X174974Y97536
X169878Y101092
X170219Y95032
X170434Y97885
X173609Y97917
X8128Y2159
X2604Y1587
X937Y26924
X937Y25971
X937Y23685
X5334Y25400
X8001Y24574
X6731Y28702
X4000Y30226
X3334Y33433
X3265Y38545
X7403Y38545
X937Y15494
X5524Y9017
X8573Y9398
X5192Y27305
X8700Y8128
X1270Y35560
X937Y22225
X5651Y23622
X8700Y22860
X8731Y19622
X969Y10700
X1255Y4255
X1191Y2731
X3795Y6350
X7605Y6350
X3175Y8319
X5065Y5080
X8573Y35370
X10097Y40069
X635Y39116
X9446Y2223
X5524Y3746
X5969Y12192
X7239Y12128
X2017Y9779
X3207Y32258
X8096Y15367
X2239Y21749
X2334Y20542
X3128Y17558
X8731Y18288
X7429Y31686
X8731Y31401
X7239Y22574
X7584Y1587
X7112Y2096
X6604Y1587
X6096Y2096
X5604Y1587
X5144Y2540
X4604Y1587
X4064Y2159
X3604Y1587
X2413Y35143
X2254Y19668
X1898Y12736
X5112Y12732
X8064Y30480
X6714Y27639
X3048Y2159
X2413Y35878
X1651Y17829
X1509Y12065
X6096Y27114
X8467Y27411
X8578Y1582
X1841Y2159
X3519Y37846
X7085Y37846
X5080Y22860
X6350Y22860
X6286Y6350
X6286Y5080
X506Y31305
X506Y30607
X1207Y1651
X730Y2127
X9525Y1397
X7302Y33020
X4128Y8954
X8731Y17272
X3619Y29654
X2921Y30543
X6985Y10406
X6286Y9017
X7175Y21050
X7334Y15240
X2238Y18796
X2579Y12736
X2794Y15589
X5969Y15621
X20511Y4890
X19304Y2159
X13779Y1587
X12113Y26924
X12113Y25971
X12113Y23685
X16510Y25400
X19177Y24574
X17907Y28702
X15176Y30226
X14510Y33433
X14441Y38545
X18579Y38545
X12113Y15494
X16701Y9017
X19749Y9398
X16368Y27305
X19876Y8128
X12446Y35560
X12113Y22225
X16828Y23622
X19876Y22860
X19907Y19622
X12145Y10700
X12431Y4255
X12367Y2731
X14971Y6350
X18781Y6350
X14351Y8319
X16241Y5080
X19749Y35370
X21273Y40069
X11811Y39116
X20622Y2223
X16701Y3746
X17145Y12192
X18415Y12128
X13193Y9779
X14383Y32258
X19272Y15367
X13415Y21749
X13510Y20542
X14304Y17558
X19907Y18288
X18606Y31686
X19907Y31401
X18415Y22574
X18760Y1587
X18288Y2096
X17780Y1587
X17272Y2096
X16780Y1587
X16319Y2540
X15780Y1587
X15240Y2159
X14780Y1587
X13589Y35143
X13430Y19668
X13074Y12736
X16288Y12732
X19241Y30480
X17890Y27639
X14224Y2159
X13589Y35878
X12827Y17829
X12685Y12065
X17272Y27114
X19643Y27411
X19754Y1582
X13017Y2159
X14695Y37846
X18262Y37846
X16256Y22860
X17526Y22860
X17463Y6350
X17463Y5080
X11682Y31305
X11682Y30607
X12382Y1651
X11906Y2127
X20701Y1397
X18479Y33020
X15303Y8954
X19907Y17272
X14795Y29654
X14097Y30543
X18161Y10406
X17463Y9017
X18352Y21050
X18510Y15240
X13413Y18796
X13755Y12736
X13970Y15589
X17145Y15621
X31686Y4890
X30480Y2159
X24955Y1587
X23289Y26924
X23289Y25971
X23289Y23685
X27686Y25400
X30353Y24574
X29083Y28702
X26352Y30226
X25686Y33433
X25617Y38545
X29755Y38545
X23289Y15494
X27876Y9017
X30924Y9398
X27544Y27305
X31051Y8128
X23622Y35560
X23289Y22225
X28003Y23622
X31051Y22860
X31083Y19622
X23321Y10700
X23607Y4255
X23543Y2731
X26147Y6350
X29957Y6350
X25527Y8319
X27417Y5080
X30924Y35370
X32448Y40069
X22987Y39116
X31798Y2223
X27876Y3746
X28321Y12192
X29591Y12128
X24369Y9779
X25559Y32258
X30448Y15367
X24591Y21749
X24686Y20542
X25480Y17558
X31083Y18288
X29781Y31686
X31083Y31401
X29591Y22574
X29936Y1587
X29464Y2096
X28956Y1587
X28448Y2096
X27956Y1587
X27495Y2540
X26956Y1587
X26416Y2159
X25956Y1587
X24765Y35143
X24606Y19668
X24250Y12736
X27464Y12732
X30416Y30480
X29066Y27639
X25400Y2159
X24765Y35878
X24003Y17829
X23861Y12065
X28448Y27114
X30819Y27411
X30930Y1582
X24193Y2159
X25871Y37846
X29437Y37846
X27432Y22860
X28702Y22860
X28638Y6350
X28638Y5080
X22858Y31305
X22858Y30607
X23558Y1651
X23082Y2127
X31877Y1397
X29654Y33020
X26479Y8954
X31083Y17272
X25971Y29654
X25273Y30543
X29337Y10406
X28638Y9017
X29527Y21050
X29686Y15240
X24589Y18796
X24931Y12736
X25146Y15589
X28321Y15621
X42863Y4890
X41656Y2159
X36132Y1587
X34465Y26924
X34465Y25971
X34465Y23685
X136525Y118173
M30